<?xml version="1.0" encoding="UTF-8" standalone="no"?>
<!-- Created with Inkscape (http://www.inkscape.org/) -->

<svg
   xmlns:dc="http://purl.org/dc/elements/1.1/"
   xmlns:cc="http://creativecommons.org/ns#"
   xmlns:rdf="http://www.w3.org/1999/02/22-rdf-syntax-ns#"
   xmlns:svg="http://www.w3.org/2000/svg"
   xmlns="http://www.w3.org/2000/svg"
   xmlns:sodipodi="http://sodipodi.sourceforge.net/DTD/sodipodi-0.dtd"
   xmlns:inkscape="http://www.inkscape.org/namespaces/inkscape"
   width="18.73344mm"
   height="18.109369mm"
   viewBox="0 0 18.733441 18.109369"
   version="1.1"
   id="svg7286"
   inkscape:version="0.92.3 (2405546, 2018-03-11)"
   sodipodi:docname="proponente_LVL_1.svg">
  <defs
     id="defs7280" />
  <sodipodi:namedview
     id="base"
     pagecolor="#ffffff"
     bordercolor="#666666"
     borderopacity="1.0"
     inkscape:pageopacity="0.0"
     inkscape:pageshadow="2"
     inkscape:zoom="5.6"
     inkscape:cx="72.420045"
     inkscape:cy="11.275429"
     inkscape:document-units="mm"
     inkscape:current-layer="g2666-57-9-4-8-2"
     showgrid="false"
     fit-margin-top="0"
     fit-margin-left="0"
     fit-margin-right="0"
     fit-margin-bottom="0"
     inkscape:pagecheckerboard="true"
     gridtolerance="1"
     objecttolerance="1"
     guidetolerance="1"
     inkscape:window-width="1920"
     inkscape:window-height="1017"
     inkscape:window-x="-8"
     inkscape:window-y="-8"
     inkscape:window-maximized="1"
     showguides="true"
     inkscape:guide-bbox="true">
    <sodipodi:guide
       position="9.2709118,14.315624"
       orientation="1,0"
       id="guide898"
       inkscape:locked="false" />
  </sodipodi:namedview>
  <metadata
     id="metadata7283">
    <rdf:RDF>
      <cc:Work
         rdf:about="">
        <dc:format>image/svg+xml</dc:format>
        <dc:type
           rdf:resource="http://purl.org/dc/dcmitype/StillImage" />
        <dc:title></dc:title>
      </cc:Work>
    </rdf:RDF>
  </metadata>
  <g
     inkscape:groupmode="layer"
     id="layer6"
     inkscape:label="Layer 2"
     style="display:inline">
    <g
       id="g843"
       transform="translate(-0.07087054)">
      <g
         inkscape:export-ydpi="100"
         inkscape:export-xdpi="100"
         style="opacity:1;fill:#daa323;fill-opacity:1"
         id="g2666-57-9-4-8-2"
         transform="matrix(0.85256089,0,0,0.85256089,-143.47398,-150.72423)">
        <g
           transform="matrix(1.1001676,0,0,1.1001676,-18.035596,-19.836208)"
           id="g857">
          <path
             sodipodi:nodetypes="cssscccsccccc"
             inkscape:connector-curvature="0"
             id="path10187-8-2"
             d="m 173.73673,192.09353 c -0.33244,-0.4021 -0.34945,-0.46955 -0.2962,-1.17395 0.0759,-1.00265 0.67412,-1.72525 1.28732,-2.48021 0.83835,-1.03218 2.22525,-2.22343 2.45022,-1.99509 l 0.31116,0.31579 c 0.4315,0.43798 1.24389,0.80568 1.78385,0.80743 0.51596,0.001 1.48095,-0.43822 1.80182,-0.82134 0.1188,-0.14172 0.32398,-0.25767 0.45614,-0.25767 0.37728,0 1.68597,1.25284 2.3867,1.8447 0.86305,0.72893 1.25414,1.46521 1.32328,2.49105 0.053,0.78629 0.0453,0.81439 -0.35066,1.27982 l -5.5733,5.5228 z"
             style="display:inline;opacity:1;fill:#49a0b7;fill-opacity:1;stroke:#ffffff;stroke-width:0.80637819;stroke-linejoin:round;stroke-miterlimit:4;stroke-dasharray:none;stroke-opacity:1" />
          <path
             inkscape:export-ydpi="100"
             inkscape:export-xdpi="100"
             sodipodi:type="star"
             style="display:inline;opacity:1;fill:#49a0b7;fill-opacity:1;stroke:#ffffff;stroke-width:0.38669568;stroke-miterlimit:4;stroke-dasharray:none;stroke-opacity:1"
             id="path2670-80-8-7-2"
             sodipodi:sides="3"
             sodipodi:cx="228.71294"
             sodipodi:cy="75.351006"
             sodipodi:r1="2.0765183"
             sodipodi:r2="1.0382591"
             sodipodi:arg1="1.5707963"
             sodipodi:arg2="2.6179939"
             inkscape:flatsided="false"
             inkscape:rounded="0"
             inkscape:randomized="0"
             d="m 228.71294,77.427524 -0.89916,-1.557389 -0.89916,-1.557389 1.79832,0 1.79831,0 -0.89915,1.557389 z"
             inkscape:transform-center-y="0.65353628"
             inkscape:transform-center-x="-4.2754102e-006"
             transform="matrix(1.4679541,0,0,1.2888129,-156.39889,90.993365)" />
          <path
             sodipodi:nodetypes="cc"
             inkscape:export-ydpi="100"
             inkscape:export-xdpi="100"
             style="display:inline;opacity:1;fill:#49a0b7;fill-opacity:1;stroke:#ffffff;stroke-width:0.61267269px;stroke-linecap:butt;stroke-linejoin:miter;stroke-opacity:1"
             d="m 179.90594,187.75423 c 0,0.0428 0.75045,1.1664 0.75045,1.1664"
             id="path2680-86-5-0-2"
             inkscape:connector-curvature="0" />
          <path
             inkscape:export-ydpi="100"
             inkscape:export-xdpi="100"
             style="display:inline;opacity:1;fill:#49a0b7;fill-opacity:1;stroke:#ffffff;stroke-width:0.61267269px;stroke-linecap:butt;stroke-linejoin:miter;stroke-opacity:1"
             d="m 178.8623,187.66471 c 0,0.0429 -0.87385,1.2609 -0.87385,1.2609"
             id="path2682-9-6-7-2"
             inkscape:connector-curvature="0"
             sodipodi:nodetypes="cc" />
          <path
             inkscape:connector-curvature="0"
             id="path822"
             d="m 174.52425,192.5109 c 0.0678,-0.01 9.54293,0 9.54293,0 l -5.04301,5.04302 z"
             style="display:inline;opacity:1;fill:#ffffff;fill-opacity:1;stroke:none;stroke-width:0.31033951px;stroke-linecap:butt;stroke-linejoin:miter;stroke-opacity:1" />
          <path
             style="display:inline;opacity:1;fill:#49a0b7;fill-opacity:1;stroke:#ffffff;stroke-width:0.8757751;stroke-miterlimit:4;stroke-dasharray:none;stroke-opacity:1"
             d="m 176.51256,185.13394 c -0.0819,-0.22332 -0.23586,-0.40605 -0.34223,-0.40605 -0.10633,0 -0.252,-0.13887 -0.32369,-0.30861 -0.16172,-0.383 -0.1721,-1.49611 -0.0142,-1.49611 0.0641,0 0.15666,-0.32062 0.20589,-0.71249 0.16987,-1.35194 1.01401,-2.46428 2.1958,-2.89352 0.53266,-0.19346 1.80382,-0.19921 2.34508,-0.0112 1.10459,0.38487 2.00147,1.51013 2.16345,2.71427 0.0325,0.24115 0.0514,0.52715 0.13095,0.75673 0.0295,0.0854 0.15193,0.12748 0.18082,0.18574 0.27919,0.56275 -0.0202,1.76392 -0.42788,1.76504 -0.0893,2.6e-4 -0.26998,0.23618 -0.40154,0.52429 -1.1425,2.74343 -4.40317,3.21544 -5.71245,-0.11807 z"
             id="path10187-9"
             inkscape:connector-curvature="0"
             sodipodi:nodetypes="ccssccscscscc" />
        </g>
      </g>
    </g>
  </g>
</svg>
