<?xml version="1.0" encoding="utf-8"?>
<!-- Generator: Adobe Illustrator 22.1.0, SVG Export Plug-In . SVG Version: 6.00 Build 0)  -->
<svg version="1.1"
	 id="svg7286" inkscape:version="0.92.3 (2405546, 2018-03-11)" sodipodi:docname="INC_LVL2.svg" xmlns:cc="http://creativecommons.org/ns#" xmlns:dc="http://purl.org/dc/elements/1.1/" xmlns:inkscape="http://www.inkscape.org/namespaces/inkscape" xmlns:rdf="http://www.w3.org/1999/02/22-rdf-syntax-ns#" xmlns:sodipodi="http://sodipodi.sourceforge.net/DTD/sodipodi-0.dtd" xmlns:svg="http://www.w3.org/2000/svg"
	 xmlns="http://www.w3.org/2000/svg" xmlns:xlink="http://www.w3.org/1999/xlink" x="0px" y="0px" viewBox="0 0 53.1 51.3"
	 style="enable-background:new 0 0 53.1 51.3;" xml:space="preserve">
<style type="text/css">
	.st0{fill:#49A0B7;}
	.st1{fill:#FFFFFF;}
	.st2{fill:#D8D8D8;}
</style>
<sodipodi:namedview  bordercolor="#666666" borderopacity="1.0" fit-margin-bottom="0" fit-margin-left="0" fit-margin-right="0" fit-margin-top="0" gridtolerance="1" guidetolerance="1" id="base" inkscape:current-layer="g847" inkscape:cx="4.8765691" inkscape:cy="25.215652" inkscape:document-units="mm" inkscape:pagecheckerboard="true" inkscape:pageopacity="0.0" inkscape:pageshadow="2" inkscape:window-height="1017" inkscape:window-maximized="1" inkscape:window-width="1920" inkscape:window-x="-8" inkscape:window-y="-8" inkscape:zoom="3.959798" objecttolerance="1" pagecolor="#ffffff" showgrid="false">
	</sodipodi:namedview>
<g>
	<g>
		<g id="path10187-8-2_1_">
			<path inkscape:connector-curvature="0" sodipodi:nodetypes="cssscccsccccc" class="st0" d="M7.1,47.4c-1.1-1.4-1.2-1.6-1-4
				c0.3-3.4,2.3-5.8,4.4-8.4c2.8-3.5,7.5-7.5,8.3-6.8l1.1,1.1c1.5,1.5,4.2,2.7,6,2.7c1.7,0,5-1.5,6.1-2.8c0.4-0.5,1.1-0.9,1.5-0.9
				c1.3,0,5.7,4.2,8.1,6.3c2.9,2.5,4.3,5,4.5,8.4c0.2,2.7,0.2,2.8-1.2,4.3"/>
			<g>
				<path class="st1" d="M6.1,49.1c-1.5,0-1.6-3.2-1.4-5.8c0.3-3.8,2.5-6.5,4.6-9l0.1-0.1c2-2.5,6.8-7.3,9-7.4c0.5,0,1,0.2,1.3,0.5
					l1.1,1.1c1.2,1.2,3.6,2.3,5.1,2.3c0,0,0,0,0,0c1.3,0,4.2-1.3,5.1-2.3c0.5-0.7,1.6-1.4,2.6-1.4c1.4,0,3.3,1.6,7.2,5
					c0.7,0.6,1.3,1.1,1.8,1.6c3.2,2.7,4.7,5.5,5,9.4c0.2,2.9,0.2,6.2-1.5,6.2C36.1,49.2,16.7,49.1,6.1,49.1z M43.9,46.5
					c0.9-1.1,0.9-1.1,0.8-3.3c-0.2-3.1-1.4-5.3-4-7.5c-0.5-0.5-1.2-1-1.9-1.6c-1.6-1.4-4.4-3.9-5.4-4.3c-0.1,0.1-0.3,0.2-0.5,0.4
					c-1.3,1.6-5,3.3-7.1,3.3c0,0,0,0,0,0c-2.2,0-5.3-1.4-7-3.1l-0.6-0.6c-1.3,0.7-4.4,3.4-6.7,6.2L11.4,36c-2,2.5-3.7,4.6-4,7.5
					c-0.1,1.9-0.2,2,0.7,3L43.9,46.5z M33.4,29.8L33.4,29.8C33.4,29.8,33.4,29.8,33.4,29.8z"/>
			</g>
		</g>
		<g id="path2670-80-8-7-2_1_">
			
				<path inkscape:export-xdpi="100" inkscape:export-ydpi="100" inkscape:flatsided="false" inkscape:randomized="0" inkscape:rounded="0" inkscape:transform-center-x="-4.2754102e-006" inkscape:transform-center-y="0.65353628" sodipodi:arg1="1.5707963" sodipodi:arg2="2.6179939" sodipodi:cx="228.71294" sodipodi:cy="75.351006" sodipodi:r1="2.0765183" sodipodi:r2="1.0382591" sodipodi:sides="3" sodipodi:type="star" class="st0" d="
				M26.1,43l-4.5-6.8l-4.5-6.8h8.9h8.4l0.4,0.3L34.6,30l-4,6.1L26.1,43z"/>
			<path class="st1" d="M26.1,44.6L15.5,28.5h19.3l1.4,1l-0.8,1.1L26.1,44.6z M18.8,30.3l7.3,11.1l7.3-11.1H18.8z"/>
		</g>
		<g id="path2680-86-5-0-2_1_">
			
				<path inkscape:connector-curvature="0" inkscape:export-xdpi="100" inkscape:export-ydpi="100" sodipodi:nodetypes="cc" class="st1" d="
				M28.1,32.4c0,0.1,2.5,4,2.5,4"/>
			<g>
				<path class="st1" d="M29.7,36.9C27,32.9,27,32.8,27,32.4h2.1h-1L29,32c0.1,0.3,1.4,2.2,2.5,3.8L29.7,36.9z"/>
			</g>
		</g>
		<g id="path2682-9-6-7-2_1_">
			
				<path inkscape:connector-curvature="0" inkscape:export-xdpi="100" inkscape:export-ydpi="100" sodipodi:nodetypes="cc" class="st1" d="
				M24.5,32.4c0,0.1-3,4.3-3,4.3"/>
			<g>
				<path class="st1" d="M22.4,37.3l-1.7-1.2c1.3-1.8,2.7-3.8,2.9-4.1l0.8,0.4h1.2C25.6,32.8,25.6,32.9,22.4,37.3z"/>
			</g>
		</g>
		<g id="path10187-9_1_">
			<path inkscape:connector-curvature="0" sodipodi:nodetypes="ccssccscscscc" class="st0" d="M16.4,23.8c-0.3-0.8-0.8-1.4-1.2-1.4
				c-0.4,0-0.9-0.5-1.1-1c-0.5-1.3-0.6-5.1,0-5.1c0.2,0,0.5-1.1,0.7-2.4c0.6-4.6,3.4-8.4,7.4-9.8c1.8-0.7,6.1-0.7,7.9,0
				c3.7,1.3,6.8,5.1,7.3,9.2c0.1,0.8,0.2,1.8,0.4,2.6c0.1,0.3,0.5,0.4,0.6,0.6c0.9,1.9-0.1,6-1.5,6c-0.3,0-0.9,0.8-1.4,1.8
				C31.9,33.5,20.8,35.1,16.4,23.8L16.4,23.8z"/>
			<g>
				<path class="st1" d="M26,33.2C25.9,33.2,25.9,33.2,26,33.2c-4.8,0-8.7-3.3-10.9-8.9l0,0c-0.1-0.2-0.2-0.4-0.2-0.5
					c-0.9-0.2-1.6-1.1-2-1.9c-0.6-1.4-0.8-5.2-0.1-6.4c0.1-0.1,0.2-0.2,0.3-0.3c0.1-0.3,0.2-0.8,0.3-1.5c0.6-5.1,3.9-9.4,8.4-11
					c2.1-0.8,6.8-0.8,8.9,0c4.3,1.5,7.7,5.8,8.3,10.4l0.1,0.6c0.1,0.5,0.1,1,0.2,1.4c0.2,0.2,0.5,0.4,0.6,0.7c1,1.9,0.5,5-0.5,6.7
					c-0.6,0.9-1.2,1.2-1.7,1.4c-0.1,0.2-0.4,0.5-0.6,1C35,29.9,30.6,33.2,26,33.2z M17.8,23.3c1.7,4.4,4.7,6.9,8.1,7c0,0,0,0,0.1,0
					c3.5,0,6.8-2.6,8.4-6.6c0.5-1.1,1.3-2.4,2.4-2.7c0.4-0.6,0.9-2.5,0.5-3.7c-0.3-0.2-0.6-0.5-0.8-1c-0.3-0.8-0.4-1.6-0.4-2.3
					L36,13.5c-0.5-3.5-3.1-6.9-6.4-8c-1.5-0.5-5.5-0.5-7,0c-3.5,1.3-6,4.6-6.5,8.6c-0.2,1.5-0.5,2.6-1,3.2c-0.1,0.8,0,2.8,0.3,3.5
					c0,0.1,0.1,0.1,0.1,0.2C16.7,21.2,17.4,22.3,17.8,23.3z M15.2,23.9C15.2,23.9,15.2,23.9,15.2,23.9
					C15.2,23.9,15.2,23.9,15.2,23.9z M37.1,21C37.1,21,37.1,21,37.1,21C37.1,21,37.1,21,37.1,21z M37.2,17.1
					C37.2,17.1,37.2,17.1,37.2,17.1C37.2,17.1,37.2,17.1,37.2,17.1z"/>
			</g>
		</g>
	</g>
	<path class="st2" d="M26.3,2.1c1.7,0,3.3,0.2,4.4,0.5c4.3,1.5,7.7,5.8,8.3,10.4l0.1,0.6c0.1,0.5,0.1,1,0.2,1.4
		c0.2,0.2,0.5,0.4,0.6,0.7c1,1.9,0.5,5-0.5,6.7c-0.6,0.9-1.2,1.2-1.7,1.4c-0.1,0.2-0.4,0.5-0.6,1c-0.4,1.1-1,2.1-1.6,3
		c1.2,0.8,2.9,2.2,5.2,4.2c0.7,0.6,1.3,1.1,1.8,1.6c3.2,2.7,4.7,5.5,5,9.4c0.2,2.9,0.2,6.2-1.5,6.2c-9.9,0-29.3-0.1-39.9-0.1
		c-1.5,0-1.6-3.2-1.4-5.8c0.3-3.8,2.5-6.5,4.6-9l0.1-0.1c1.6-2,4.8-5.2,7.2-6.7c-0.6-0.9-1.1-2-1.6-3.1l0,0
		c-0.1-0.2-0.2-0.4-0.2-0.5c-0.9-0.2-1.6-1.1-2-1.9c-0.6-1.4-0.8-5.2-0.1-6.4c0.1-0.1,0.2-0.2,0.3-0.3c0.1-0.3,0.2-0.8,0.3-1.5
		c0.6-5.1,3.9-9.4,8.4-11C22.8,2.3,24.6,2.1,26.3,2.1 M26.3,0c-1,0-3.5,0.1-5.3,0.7c-5.3,1.9-9,6.8-9.8,12.8c0,0.3-0.1,0.6-0.1,0.8
		c0,0.1-0.1,0.1-0.1,0.2c-1.3,2-0.9,6.6-0.1,8.4c0.5,1.2,1.4,2.2,2.4,2.7c0.2,0.4,0.4,0.9,0.6,1.3c-2.3,1.8-4.8,4.4-6,6l-0.1,0.1
		c-2.2,2.7-4.7,5.8-5,10.2c-0.4,4.8,0.5,6.3,1.2,7.1c0.6,0.6,1.4,1,2.3,1c5.4,0,13.1,0,20.6,0c7.3,0,14.4,0,19.3,0
		c0.9,0,1.8-0.4,2.4-1c1.3-1.4,1.5-3.9,1.2-7.4c-0.3-4.4-2.1-7.8-5.7-10.9c-0.5-0.4-1.1-1-1.8-1.6c-1.5-1.4-2.7-2.4-3.8-3.2
		c0.3-0.5,0.5-1,0.7-1.5c0,0,0-0.1,0.1-0.1c0.7-0.3,1.4-0.9,2.1-2c1.3-2.2,1.9-6,0.6-8.7c-0.2-0.3-0.4-0.6-0.6-0.8
		c0-0.2-0.1-0.4-0.1-0.6l-0.1-0.6c-0.7-5.4-4.7-10.4-9.7-12.2C29.7,0.1,27.5,0,26.3,0L26.3,0z"/>
</g>
</svg>
