<?xml version="1.0" encoding="UTF-8" standalone="no"?>
<!-- Created with Inkscape (http://www.inkscape.org/) -->

<svg
   xmlns:dc="http://purl.org/dc/elements/1.1/"
   xmlns:cc="http://creativecommons.org/ns#"
   xmlns:rdf="http://www.w3.org/1999/02/22-rdf-syntax-ns#"
   xmlns:svg="http://www.w3.org/2000/svg"
   xmlns="http://www.w3.org/2000/svg"
   xmlns:sodipodi="http://sodipodi.sourceforge.net/DTD/sodipodi-0.dtd"
   xmlns:inkscape="http://www.inkscape.org/namespaces/inkscape"
   width="11.439595mm"
   height="16.390732mm"
   viewBox="0 0 11.439595 16.390732"
   version="1.1"
   id="svg2137"
   inkscape:version="0.92.3 (2405546, 2018-03-11)"
   sodipodi:docname="PROP_LVL2.svg">
  <defs
     id="defs2131" />
  <sodipodi:namedview
     id="base"
     pagecolor="#ffffff"
     bordercolor="#666666"
     borderopacity="1.0"
     inkscape:pageopacity="0.0"
     inkscape:pageshadow="2"
     inkscape:zoom="3.9999998"
     inkscape:cx="15.269186"
     inkscape:cy="7.6655587"
     inkscape:document-units="mm"
     inkscape:current-layer="layer4"
     showgrid="false"
     fit-margin-top="0"
     fit-margin-left="0"
     fit-margin-right="0"
     fit-margin-bottom="0"
     inkscape:pagecheckerboard="true"
     gridtolerance="1"
     guidetolerance="1"
     objecttolerance="1"
     inkscape:window-width="1335"
     inkscape:window-height="1008"
     inkscape:window-x="-7"
     inkscape:window-y="0"
     inkscape:window-maximized="0"
     showguides="true" />
  <metadata
     id="metadata2134">
    <rdf:RDF>
      <cc:Work
         rdf:about="">
        <dc:format>image/svg+xml</dc:format>
        <dc:type
           rdf:resource="http://purl.org/dc/dcmitype/StillImage" />
        <dc:title />
      </cc:Work>
    </rdf:RDF>
  </metadata>
  <g
     inkscape:groupmode="layer"
     id="layer4"
     inkscape:label="Layer 4"
     style="display:inline"
     transform="translate(-0.2581356,0.02906063)">
    <path
       style="opacity:1;fill:#386c7a;fill-opacity:1;stroke:#ffffff;stroke-width:0.60486639;stroke-linejoin:round;stroke-miterlimit:4;stroke-dasharray:none;stroke-opacity:1"
       d="M 0.82240055,10.855816 C 0.57641396,10.550061 0.56382914,10.129991 0.60322954,9.5943728 0.6593823,8.8319629 1.1020437,6.9686769 1.555784,6.3946079 2.1761264,5.6097488 2.5754313,5.7734159 2.7419035,5.9470303 l 0.2302499,0.2401283 c 0.3192886,0.3330333 0.9204152,0.612634 1.3199638,0.6139573 0.3817806,9.43e-4 1.0958316,-0.3332126 1.3332609,-0.6245342 0.087906,-0.1077675 0.2397293,-0.1959304 0.3375238,-0.1959304 0.2791645,0 1.2475374,0.9526504 1.7660459,1.4026898 0.6386124,0.5542763 0.9280035,1.114138 0.9791598,1.8941769 0.039226,0.5978885 0.033506,0.6192505 -0.2594701,0.973161 l -2.6556764,5.472996 z"
       id="path10187-8-2-5"
       inkscape:connector-curvature="0"
       sodipodi:nodetypes="cssscccsccccc" />
    <g
       id="g10240-6-1-8-0"
       transform="matrix(1.1674176,0,0,1.0801612,-263.97818,-74.766054)"
       style="display:inline;opacity:1;fill:#386c7a;fill-opacity:1">
      <path
         inkscape:export-ydpi="100"
         inkscape:export-xdpi="100"
         sodipodi:type="star"
         style="opacity:1;fill:#386c7a;fill-opacity:1;stroke:#ffffff;stroke-width:0.38669568;stroke-miterlimit:4;stroke-dasharray:none;stroke-opacity:1"
         id="path2670-80-8-7-2-8-0-2"
         sodipodi:sides="3"
         sodipodi:cx="228.71294"
         sodipodi:cy="75.351006"
         sodipodi:r1="2.0765183"
         sodipodi:r2="1.0382591"
         sodipodi:arg1="1.5707963"
         sodipodi:arg2="2.6179939"
         inkscape:flatsided="false"
         inkscape:rounded="0"
         inkscape:randomized="0"
         d="m 228.71294,77.427524 -0.89916,-1.557389 -0.89916,-1.557389 1.79832,0 1.79831,0 -0.89915,1.557389 z"
         inkscape:transform-center-y="0.65353628"
         inkscape:transform-center-x="-4.2754102e-006"
         transform="matrix(0.93044432,0,0,0.90727408,17.077103,7.1576996)" />
    </g>
    <path
       sodipodi:nodetypes="ccssccscscsccc"
       inkscape:connector-curvature="0"
       id="path10187-9-3"
       d="M 2.1508517,4.9069742 C 2.0918971,4.7472506 1.9809925,4.6165615 1.9043982,4.6165615 c -0.076582,0 -0.181475,-0.099319 -0.23311,-0.2207191 C 1.55478,4.1219225 1.5473552,3.3258209 1.6607842,3.3258209 c 0.046113,0 0.1127726,-0.2293086 0.1482737,-0.5095766 C 1.931389,1.8493335 2.5392866,1.0537841 3.390334,0.74679174 3.773924,0.6084225 4.6893312,0.60431575 5.0791202,0.73875343 5.8745751,1.0140158 6.5204488,1.8188029 6.6370971,2.680009 c 0.023348,0.1724722 0.037007,0.3770209 0.094328,0.5412157 0.021247,0.061081 0.1093876,0.091175 0.1302137,0.1328385 C 7.062691,3.7565466 6.8470457,4.6156272 6.5535101,4.6164269 6.4891853,4.6166137 6.3590884,4.7853434 6.2643408,4.9914039 5.4415799,6.9535148 3.0934596,7.2910952 2.1505949,4.9069607 Z"
       style="fill:#386c7a;fill-opacity:1;stroke:#ffffff;stroke-width:0.62851453;stroke-miterlimit:4;stroke-dasharray:none;stroke-opacity:1" />
    <path
       style="opacity:1;fill:#49a0b7;fill-opacity:1;stroke:#ffffff;stroke-width:0.62201971;stroke-linejoin:round;stroke-miterlimit:4;stroke-dasharray:none;stroke-opacity:1"
       d="M 3.8449916,13.826116 C 3.7159361,10.822166 3.772081,7.3377785 5.5968108,6.266917 L 6.4183703,6.2407245 C 6.7467031,6.5832022 7.3648774,6.870732 7.775756,6.8720928 8.1683635,6.8730625 8.9026646,6.5294308 9.1468354,6.2298476 9.2372639,6.119024 9.3933625,6.0283608 9.4939322,6.0283608 c 0.2870785,0 0.3347973,-0.1390969 0.8680078,0.3237052 0.656728,0.5699958 0.954329,2.515785 1.006933,3.3179447 0.04034,0.6148443 0.03442,0.6368113 -0.266833,1.0007583 l -5.1781056,5.376916 z"
       id="path10187-8-2-5-5"
       inkscape:connector-curvature="0"
       sodipodi:nodetypes="cccccsccccc" />
    <g
       id="g10240-6-1-8"
       transform="matrix(1.2005242,0,0,1.1107933,-266.73947,-76.466299)">
      <path
         inkscape:export-ydpi="100"
         inkscape:export-xdpi="100"
         sodipodi:type="star"
         style="opacity:1;fill:#49a0b7;fill-opacity:1;stroke:#ffffff;stroke-width:0.38669568;stroke-miterlimit:4;stroke-dasharray:none;stroke-opacity:1"
         id="path2670-80-8-7-2-8-0"
         sodipodi:sides="3"
         sodipodi:cx="228.71294"
         sodipodi:cy="75.351006"
         sodipodi:r1="2.0765183"
         sodipodi:r2="1.0382591"
         sodipodi:arg1="1.5707963"
         sodipodi:arg2="2.6179939"
         inkscape:flatsided="false"
         inkscape:rounded="0"
         inkscape:randomized="0"
         d="m 228.71294,77.427524 -0.89916,-1.557389 -0.89916,-1.557389 1.79832,0 1.79831,0 -0.89915,1.557389 z"
         inkscape:transform-center-y="0.65353628"
         inkscape:transform-center-x="-4.2754102e-006"
         transform="matrix(0.93044432,0,0,0.90727408,15.908284,6.9699212)" />
      <path
         sodipodi:nodetypes="cc"
         inkscape:export-ydpi="100"
         inkscape:export-xdpi="100"
         style="opacity:1;fill:#49a0b7;fill-opacity:1;stroke:#ffffff;stroke-width:0.40959916;stroke-linecap:round;stroke-linejoin:miter;stroke-miterlimit:4;stroke-dasharray:none;stroke-opacity:1"
         d="m 229.09037,74.85948 c 0,0.03016 0.47566,0.821101 0.47566,0.821101"
         id="path2680-86-5-0-2-08-3"
         inkscape:connector-curvature="0" />
      <path
         inkscape:export-ydpi="100"
         inkscape:export-xdpi="100"
         style="opacity:1;fill:#49a0b7;fill-opacity:1;stroke:#ffffff;stroke-width:0.40959916;stroke-linecap:round;stroke-linejoin:miter;stroke-miterlimit:4;stroke-dasharray:none;stroke-opacity:1"
         d="m 228.42887,74.796465 c 0,0.03016 -0.55388,0.887626 -0.55388,0.887626"
         id="path2682-9-6-7-2-8-4"
         inkscape:connector-curvature="0"
         sodipodi:nodetypes="cc" />
    </g>
    <path
       sodipodi:nodetypes="ccssccscscsccc"
       inkscape:connector-curvature="0"
       id="path10187-9-3-3"
       d="M 5.6986345,4.8232574 C 5.6363335,4.6544844 5.5191582,4.5163921 5.4382285,4.5163921 c -0.08093,0 -0.1917639,-0.1049481 -0.2463174,-0.2332243 -0.1231217,-0.2894388 -0.1309556,-1.1306429 -0.0111,-1.1306429 0.048731,0 0.1191739,-0.2423 0.1566655,-0.538446 C 5.4667389,1.5923875 6.1090811,0.75176634 7.0083381,0.4273821 7.4136651,0.28117386 8.3809351,0.27683352 8.7928004,0.41890147 9.6333218,0.70975819 10.315795,1.560141 10.439053,2.4701381 c 0.02468,0.1822434 0.03911,0.3983805 0.09968,0.5718778 0.02246,0.064541 0.115596,0.096338 0.137592,0.1403651 0.212452,0.4252854 -0.01542,1.3330377 -0.325593,1.3338824 -0.06797,1.975e-4 -0.205434,0.1784861 -0.305547,0.3962207 C 9.175817,6.9857578 6.6946563,7.3424638 5.69837,4.8232523 Z"
       style="fill:#49a0b7;fill-opacity:1;stroke:#ffffff;stroke-width:0.6641227;stroke-miterlimit:4;stroke-dasharray:none;stroke-opacity:1" />
    <path
       inkscape:connector-curvature="0"
       id="path822"
       d="m 1.9283199,11.65061 c 0.057838,-0.0082 8.1359331,0 8.1359331,0 l -4.2994745,4.29948 z"
       style="display:inline;opacity:1;fill:#ffffff;fill-opacity:1;stroke:none;stroke-width:0.26458332px;stroke-linecap:butt;stroke-linejoin:miter;stroke-opacity:1" />
  </g>
</svg>
