<?xml version="1.0" encoding="UTF-8" standalone="no"?>
<!-- Created with Inkscape (http://www.inkscape.org/) -->

<svg
   xmlns:dc="http://purl.org/dc/elements/1.1/"
   xmlns:cc="http://creativecommons.org/ns#"
   xmlns:rdf="http://www.w3.org/1999/02/22-rdf-syntax-ns#"
   xmlns:svg="http://www.w3.org/2000/svg"
   xmlns="http://www.w3.org/2000/svg"
   xmlns:sodipodi="http://sodipodi.sourceforge.net/DTD/sodipodi-0.dtd"
   xmlns:inkscape="http://www.inkscape.org/namespaces/inkscape"
   width="6.3326807mm"
   height="6.9255123mm"
   viewBox="0 0 6.3326807 6.9255123"
   version="1.1"
   id="svg2047"
   inkscape:version="0.92.3 (2405546, 2018-03-11)"
   sodipodi:docname="proponente_verde.svg">
  <defs
     id="defs2041" />
  <sodipodi:namedview
     id="base"
     pagecolor="#ffffff"
     bordercolor="#666666"
     borderopacity="1.0"
     inkscape:pageopacity="0.0"
     inkscape:pageshadow="2"
     inkscape:zoom="7.9195959"
     inkscape:cx="20.320032"
     inkscape:cy="-4.1425336"
     inkscape:document-units="mm"
     inkscape:current-layer="layer1"
     showgrid="false"
     fit-margin-top="0"
     fit-margin-left="0"
     fit-margin-right="0"
     fit-margin-bottom="0"
     inkscape:window-width="1920"
     inkscape:window-height="1017"
     inkscape:window-x="-8"
     inkscape:window-y="-8"
     inkscape:window-maximized="1" />
  <metadata
     id="metadata2044">
    <rdf:RDF>
      <cc:Work
         rdf:about="">
        <dc:format>image/svg+xml</dc:format>
        <dc:type
           rdf:resource="http://purl.org/dc/dcmitype/StillImage" />
        <dc:title></dc:title>
      </cc:Work>
    </rdf:RDF>
  </metadata>
  <g
     inkscape:label="Layer 1"
     inkscape:groupmode="layer"
     id="layer1"
     transform="translate(-52.018179,-100.01343)">
    <g
       transform="translate(-144.71301,18.814036)"
       id="g5564">
      <path
         style="fill:#49a0b7;stroke:#cccccc;stroke-width:0.52916664px;stroke-opacity:1"
         id="path27-5"
         d="m 202.77534,87.237875 a 1.762125,1.762125 0 0 0 -0.65616,-1.240896 c -0.23284,-0.203729 -0.62178,-0.568854 -0.89959,-0.767292 l -0.045,-0.03439 a 0.54504167,0.54504167 0 0 0 -0.22489,-0.111125 v 0 a 2.0663958,2.0663958 0 0 0 0.4101,-0.621771 0.3730625,0.3730625 0 0 1 0.18256,-0.264584 c 0.21961,0 0.36513,-0.584729 0.21961,-0.87577 0,0 -0.0741,-0.03704 -0.0741,-0.07408 a 0.67204167,0.67204167 0 0 1 -0.0714,-0.365125 1.6457083,1.6457083 0 0 0 -1.05834,-1.349375 2.3415625,2.3415625 0 0 0 -1.13241,0 1.7250833,1.7250833 0 0 0 -1.10596,1.436688 c -0.0344,0.216958 -0.0714,0.365125 -0.10848,0.365125 -0.037,0 -0.0741,0.545041 0,0.727604 0.037,0.07408 0.10848,0.148167 0.14552,0.148167 0.037,0 0.14552,0.108479 0.18256,0.216958 a 2.0425833,2.0425833 0 0 0 0.49742,0.767292 h -0.0556 l -0.14817,-0.145521 c -0.10848,-0.111125 -0.79375,0.473604 -1.20385,0.98425 -0.29104,0.365125 -0.58208,0.73025 -0.61913,1.203854 -0.037,0.365125 0,0.402167 0.14552,0.584729 l 5.43719,0.03704 a 0.60060417,0.60060417 0 0 0 0.18256,-0.621771 z"
         class="cls-9"
         inkscape:connector-curvature="0" />
      <path
         style="fill:#66861a;fill-opacity:1;stroke:#ffffff;stroke-width:0.21431249px;stroke-linejoin:round"
         d="m 197.15559,87.822604 c -0.14552,-0.182562 -0.18256,-0.219604 -0.14552,-0.584729 0.037,-0.473604 0.32808,-0.838729 0.61913,-1.203854 0.40216,-0.510646 1.09537,-1.095375 1.20385,-0.98425 l 0.14817,0.145521 a 1.4710833,1.4710833 0 0 0 0.87577,0.402166 1.5134167,1.5134167 0 0 0 0.87577,-0.402166 0.26458333,0.26458333 0 0 1 0.21696,-0.111125 c 0.18256,0 0.84137,0.62177 1.16946,0.912812 a 1.762125,1.762125 0 0 1 0.65616,1.240896 0.60060417,0.60060417 0 0 1 -0.18256,0.621771 z"
         class="cls-10"
         id="path10187-8-2-4"
         inkscape:connector-curvature="0" />
      <path
         style="fill:none;stroke:#ffffff;stroke-width:0.21166667px"
         d="m 201.2434,85.195292 -0.65881,0.98425 -0.65616,0.986895 -0.65617,-0.986895 -0.65617,-0.98425"
         class="cls-11"
         id="path2670-80-8-7-2-5"
         inkscape:connector-curvature="0" />
      <path
         style="fill:#49a0b7;stroke:#ffffff;stroke-width:0.21166667px"
         d="m 200.11099,85.560417 0.40216,0.73025"
         class="cls-12"
         id="path2680-86-5-0-2-6"
         inkscape:connector-curvature="0" />
      <path
         style="fill:#49a0b7;stroke:#ffffff;stroke-width:0.21166667px"
         d="m 199.70882,85.560417 c 0.0741,-0.07408 -0.39952,0.619125 -0.39952,0.619125"
         class="cls-12"
         id="path2682-9-6-7-2-0"
         inkscape:connector-curvature="0" />
      <path
         style="fill:#66861a;fill-opacity:1;stroke:#ffffff;stroke-width:0.23283333px"
         d="m 198.54201,84.428 c -0.037,-0.108479 -0.10848,-0.216958 -0.18256,-0.216958 -0.0741,0 -0.10848,-0.07408 -0.14552,-0.148167 -0.0741,-0.182563 -0.0741,-0.727604 0,-0.727604 0.0741,0 0.0741,-0.148167 0.10847,-0.365125 a 1.7250833,1.7250833 0 0 1 1.09538,-1.423458 2.3415625,2.3415625 0 0 1 1.13242,0 1.651,1.651 0 0 1 1.05833,1.349375 0.67204167,0.67204167 0 0 0 0.0714,0.365125 c 0,0.03704 0.0741,0.07408 0.0741,0.07408 0.14552,0.291042 0,0.875771 -0.2196,0.875771 a 0.3730625,0.3730625 0 0 0 -0.18257,0.264583 c -0.58473,1.349375 -2.1881,1.568979 -2.80987,-0.03704 z"
         class="cls-13"
         id="path10187-9-9"
         inkscape:connector-curvature="0" />
    </g>
  </g>
</svg>
