<?xml version="1.0" encoding="UTF-8" standalone="no"?>
<!-- Created with Inkscape (http://www.inkscape.org/) -->

<svg
   xmlns:dc="http://purl.org/dc/elements/1.1/"
   xmlns:cc="http://creativecommons.org/ns#"
   xmlns:rdf="http://www.w3.org/1999/02/22-rdf-syntax-ns#"
   xmlns:svg="http://www.w3.org/2000/svg"
   xmlns="http://www.w3.org/2000/svg"
   xmlns:sodipodi="http://sodipodi.sourceforge.net/DTD/sodipodi-0.dtd"
   xmlns:inkscape="http://www.inkscape.org/namespaces/inkscape"
   width="18.73344mm"
   height="18.109369mm"
   viewBox="0 0 18.733441 18.109369"
   version="1.1"
   id="svg7286"
   inkscape:version="0.92.3 (2405546, 2018-03-11)"
   sodipodi:docname="INC_LVL5.svg">
  <defs
     id="defs7280" />
  <sodipodi:namedview
     id="base"
     pagecolor="#ffffff"
     bordercolor="#666666"
     borderopacity="1.0"
     inkscape:pageopacity="0.0"
     inkscape:pageshadow="2"
     inkscape:zoom="2.8"
     inkscape:cx="94.585366"
     inkscape:cy="1.8794286"
     inkscape:document-units="mm"
     inkscape:current-layer="layer9"
     showgrid="false"
     fit-margin-top="0"
     fit-margin-left="0"
     fit-margin-right="0"
     fit-margin-bottom="0"
     inkscape:pagecheckerboard="true"
     gridtolerance="1"
     objecttolerance="1"
     guidetolerance="1"
     inkscape:window-width="1920"
     inkscape:window-height="1017"
     inkscape:window-x="-8"
     inkscape:window-y="-8"
     inkscape:window-maximized="1" />
  <metadata
     id="metadata7283">
    <rdf:RDF>
      <cc:Work
         rdf:about="">
        <dc:format>image/svg+xml</dc:format>
        <dc:type
           rdf:resource="http://purl.org/dc/dcmitype/StillImage" />
        <dc:title />
      </cc:Work>
    </rdf:RDF>
  </metadata>
  <g
     inkscape:groupmode="layer"
     id="layer9"
     inkscape:label="Layer 5"
     style="display:inline;opacity:1">
    <path
       style="opacity:1;fill:#ffffff;fill-opacity:1;stroke:#ffffff;stroke-width:0.59149736;stroke-linecap:round;stroke-linejoin:round;stroke-miterlimit:4;stroke-dasharray:none;stroke-opacity:1"
       d="m 3.2717293,12.380773 6.0782721,5.431691 5.8467516,-5.531633"
       id="path3268-2-3-2-5-4"
       inkscape:connector-curvature="0"
       sodipodi:nodetypes="ccc" />
    <g
       transform="matrix(0.53122531,0,0,0.53122531,-86.032092,-93.919413)"
       style="opacity:1;fill:#4f3b0d;fill-opacity:1;stroke-width:0.86686236;stroke-miterlimit:4;stroke-dasharray:none"
       id="g10230-8-2-45-0-7">
      <path
         inkscape:connector-curvature="0"
         id="path2654-7-2-1-4-7-0-3-3-2-9"
         d="m 176.58516,177.24331 1.95682,0.0276 1.32291,-0.24804 0.60634,0.41341 1.81901,-0.38586 0.55122,0.38586 -0.19293,1.26779 -0.6339,1.07487 -0.0827,0.85438 0.35829,0.60634 2.09462,1.90169 1.21267,2.72852 0.35829,2.8112 -0.41341,2.20486 -1.12999,1.01975 -5.51215,0.44097 -4.079,-0.41341 -1.21267,-1.43316 -0.19292,-3.69315 1.6812,-3.80338 1.90169,-1.95681 0.13781,-1.04731 -0.96463,-1.37804 -0.16536,-0.7717 z"
         style="fill:#4f3b0d;fill-opacity:1;stroke:none;stroke-width:0.86686236;stroke-linecap:butt;stroke-linejoin:miter;stroke-miterlimit:4;stroke-dasharray:none;stroke-opacity:1" />
      <path
         sodipodi:nodetypes="csccsc"
         inkscape:connector-curvature="0"
         id="path2656-7-9-7-9-9-8-6-4-9-0"
         d="m 177.41967,180.54429 c -1.85778,1.69084 -3.87672,3.64911 -4.06731,7.66749 -0.10362,2.18477 0.49388,4.15435 3.36242,4.02387 h 5.53971 c 3.23544,0.18697 3.70048,-1.95892 3.69314,-3.96875 -0.0125,-3.41085 -2.11903,-6.41615 -4.21282,-7.70642"
         style="opacity:1;fill:#4f3b0d;fill-opacity:1;stroke:#ffffff;stroke-width:0.86686236;stroke-linecap:butt;stroke-linejoin:miter;stroke-miterlimit:4;stroke-dasharray:none;stroke-opacity:1" />
      <path
         sodipodi:nodetypes="cccc"
         inkscape:connector-curvature="0"
         id="path2658-25-8-0-7-4-2-7-5-4-6"
         d="m 177.43777,180.41234 c -1.38013,-1.16906 -1.54545,-2.65409 -1.00608,-3.12202 0.98708,0.0205 5.33871,0 6.18131,0 0.51888,0.47838 0.36241,2.02844 -0.83218,3.11748"
         style="opacity:1;fill:#4f3b0d;fill-opacity:1;stroke:#ffffff;stroke-width:0.86686236;stroke-linecap:butt;stroke-linejoin:miter;stroke-miterlimit:4;stroke-dasharray:none;stroke-opacity:1" />
      <path
         inkscape:connector-curvature="0"
         id="path2664-9-9-9-0-1-8-5-0-48-2"
         d="m 177.0762,180.5102 h 4.96738"
         style="fill:#4f3b0d;fill-opacity:1;stroke:#ffffff;stroke-width:0.86686236;stroke-linecap:butt;stroke-linejoin:miter;stroke-miterlimit:4;stroke-dasharray:none;stroke-opacity:1" />
    </g>
    <g
       transform="matrix(-0.53122531,0,0,0.53122531,107.08619,-93.020529)"
       style="opacity:1;fill:#4f3b0d;fill-opacity:1;stroke-width:0.86686236;stroke-miterlimit:4;stroke-dasharray:none"
       id="g10230-8-2-45-0-1">
      <path
         inkscape:connector-curvature="0"
         id="path2654-7-2-1-4-7-0-3-3-2-5"
         d="m 176.58516,177.24331 1.95682,0.0276 1.32291,-0.24804 0.60634,0.41341 1.81901,-0.38586 0.55122,0.38586 -0.19293,1.26779 -0.6339,1.07487 -0.0827,0.85438 0.35829,0.60634 2.09462,1.90169 1.21267,2.72852 0.35829,2.8112 -0.41341,2.20486 -1.12999,1.01975 -5.51215,0.44097 -4.079,-0.41341 -1.21267,-1.43316 -0.19292,-3.69315 1.6812,-3.80338 1.90169,-1.95681 0.13781,-1.04731 -0.96463,-1.37804 -0.16536,-0.7717 z"
         style="fill:#4f3b0d;fill-opacity:1;stroke:none;stroke-width:0.86686236;stroke-linecap:butt;stroke-linejoin:miter;stroke-miterlimit:4;stroke-dasharray:none;stroke-opacity:1" />
      <path
         sodipodi:nodetypes="csccsc"
         inkscape:connector-curvature="0"
         id="path2656-7-9-7-9-9-8-6-4-9-8"
         d="m 177.41967,180.54429 c -1.85778,1.69084 -3.87672,3.64911 -4.06731,7.66749 -0.10362,2.18477 0.49388,4.15435 3.36242,4.02387 h 5.53971 c 3.23544,0.18697 3.70048,-1.95892 3.69314,-3.96875 -0.0125,-3.41085 -2.11903,-6.41615 -4.21282,-7.70642"
         style="opacity:1;fill:#4f3b0d;fill-opacity:1;stroke:#ffffff;stroke-width:0.86686236;stroke-linecap:butt;stroke-linejoin:miter;stroke-miterlimit:4;stroke-dasharray:none;stroke-opacity:1" />
      <path
         sodipodi:nodetypes="cccc"
         inkscape:connector-curvature="0"
         id="path2658-25-8-0-7-4-2-7-5-4-4"
         d="m 177.43777,180.41234 c -1.38013,-1.16906 -1.54545,-2.65409 -1.00608,-3.12202 0.98708,0.0205 5.33871,0 6.18131,0 0.51888,0.47838 0.36241,2.02844 -0.83218,3.11748"
         style="opacity:1;fill:#4f3b0d;fill-opacity:1;stroke:#ffffff;stroke-width:0.86686236;stroke-linecap:butt;stroke-linejoin:miter;stroke-miterlimit:4;stroke-dasharray:none;stroke-opacity:1" />
      <path
         inkscape:connector-curvature="0"
         id="path2664-9-9-9-0-1-8-5-0-48-8"
         d="m 177.0762,180.5102 h 4.96738"
         style="fill:#4f3b0d;fill-opacity:1;stroke:#ffffff;stroke-width:0.86686236;stroke-linecap:butt;stroke-linejoin:miter;stroke-miterlimit:4;stroke-dasharray:none;stroke-opacity:1" />
    </g>
    <g
       transform="matrix(0.53122531,0,0,0.53122531,-88.193861,-93.020529)"
       style="opacity:1;fill:#4f3b0d;fill-opacity:1;stroke-width:0.86686236;stroke-miterlimit:4;stroke-dasharray:none"
       id="g10230-8-2-45-0">
      <path
         inkscape:connector-curvature="0"
         id="path2654-7-2-1-4-7-0-3-3-2"
         d="m 176.58516,177.24331 1.95682,0.0276 1.32291,-0.24804 0.60634,0.41341 1.81901,-0.38586 0.55122,0.38586 -0.19293,1.26779 -0.6339,1.07487 -0.0827,0.85438 0.35829,0.60634 2.09462,1.90169 1.21267,2.72852 0.35829,2.8112 -0.41341,2.20486 -1.12999,1.01975 -5.51215,0.44097 -4.079,-0.41341 -1.21267,-1.43316 -0.19292,-3.69315 1.6812,-3.80338 1.90169,-1.95681 0.13781,-1.04731 -0.96463,-1.37804 -0.16536,-0.7717 z"
         style="fill:#4f3b0d;fill-opacity:1;stroke:none;stroke-width:0.86686236;stroke-linecap:butt;stroke-linejoin:miter;stroke-miterlimit:4;stroke-dasharray:none;stroke-opacity:1" />
      <path
         sodipodi:nodetypes="csccsc"
         inkscape:connector-curvature="0"
         id="path2656-7-9-7-9-9-8-6-4-9"
         d="m 177.41967,180.54429 c -1.85778,1.69084 -3.87672,3.64911 -4.06731,7.66749 -0.10362,2.18477 0.49388,4.15435 3.36242,4.02387 h 5.53971 c 3.23544,0.18697 3.70048,-1.95892 3.69314,-3.96875 -0.0125,-3.41085 -2.11903,-6.41615 -4.21282,-7.70642"
         style="opacity:1;fill:#4f3b0d;fill-opacity:1;stroke:#ffffff;stroke-width:0.86686236;stroke-linecap:butt;stroke-linejoin:miter;stroke-miterlimit:4;stroke-dasharray:none;stroke-opacity:1" />
      <path
         sodipodi:nodetypes="cccc"
         inkscape:connector-curvature="0"
         id="path2658-25-8-0-7-4-2-7-5-4"
         d="m 177.43777,180.41234 c -1.38013,-1.16906 -1.54545,-2.65409 -1.00608,-3.12202 0.98708,0.0205 5.33871,0 6.18131,0 0.51888,0.47838 0.36241,2.02844 -0.83218,3.11748"
         style="opacity:1;fill:#4f3b0d;fill-opacity:1;stroke:#ffffff;stroke-width:0.86686236;stroke-linecap:butt;stroke-linejoin:miter;stroke-miterlimit:4;stroke-dasharray:none;stroke-opacity:1" />
      <path
         inkscape:connector-curvature="0"
         id="path2664-9-9-9-0-1-8-5-0-48"
         d="m 177.0762,180.5102 h 4.96738"
         style="fill:#4f3b0d;fill-opacity:1;stroke:#ffffff;stroke-width:0.86686236;stroke-linecap:butt;stroke-linejoin:miter;stroke-miterlimit:4;stroke-dasharray:none;stroke-opacity:1" />
    </g>
    <g
       transform="matrix(0.59013303,0,0,0.59013303,-100.90852,-102.04443)"
       style="opacity:1;fill:#70561b;fill-opacity:1;stroke-width:0.86686236;stroke-miterlimit:4;stroke-dasharray:none"
       id="g10230-8-2-45-7">
      <path
         inkscape:connector-curvature="0"
         id="path2654-7-2-1-4-7-0-3-3-1"
         d="m 176.58516,177.24331 1.95682,0.0276 1.32291,-0.24804 0.60634,0.41341 1.81901,-0.38586 0.55122,0.38586 -0.19293,1.26779 -0.6339,1.07487 -0.0827,0.85438 0.35829,0.60634 2.09462,1.90169 1.21267,2.72852 0.35829,2.8112 -0.41341,2.20486 -1.12999,1.01975 -5.51215,0.44097 -4.079,-0.41341 -1.21267,-1.43316 -0.19292,-3.69315 1.6812,-3.80338 1.90169,-1.95681 0.13781,-1.04731 -0.96463,-1.37804 -0.16536,-0.7717 z"
         style="fill:#70561b;fill-opacity:1;stroke:none;stroke-width:0.86686236;stroke-linecap:butt;stroke-linejoin:miter;stroke-miterlimit:4;stroke-dasharray:none;stroke-opacity:1" />
      <path
         sodipodi:nodetypes="csccsc"
         inkscape:connector-curvature="0"
         id="path2656-7-9-7-9-9-8-6-4-4"
         d="m 177.41967,180.54429 c -1.85778,1.69084 -3.87672,3.64911 -4.06731,7.66749 -0.10362,2.18477 0.49388,4.15435 3.36242,4.02387 h 5.53971 c 3.23544,0.18697 3.70048,-1.95892 3.69314,-3.96875 -0.0125,-3.41085 -2.11903,-6.41615 -4.21282,-7.70642"
         style="opacity:1;fill:#70561b;fill-opacity:1;stroke:#ffffff;stroke-width:0.86686236;stroke-linecap:butt;stroke-linejoin:miter;stroke-miterlimit:4;stroke-dasharray:none;stroke-opacity:1" />
      <path
         sodipodi:nodetypes="cccc"
         inkscape:connector-curvature="0"
         id="path2658-25-8-0-7-4-2-7-5-20"
         d="m 177.43777,180.41234 c -1.38013,-1.16906 -1.54545,-2.65409 -1.00608,-3.12202 0.98708,0.0205 5.33871,0 6.18131,0 0.51888,0.47838 0.36241,2.02844 -0.83218,3.11748"
         style="opacity:1;fill:#70561b;fill-opacity:1;stroke:#ffffff;stroke-width:0.86686236;stroke-linecap:butt;stroke-linejoin:miter;stroke-miterlimit:4;stroke-dasharray:none;stroke-opacity:1" />
      <path
         inkscape:connector-curvature="0"
         id="path2664-9-9-9-0-1-8-5-0-8"
         d="m 177.0762,180.5102 h 4.96738"
         style="fill:#70561b;fill-opacity:1;stroke:#ffffff;stroke-width:0.86686236;stroke-linecap:butt;stroke-linejoin:miter;stroke-miterlimit:4;stroke-dasharray:none;stroke-opacity:1" />
    </g>
    <g
       transform="matrix(-0.59013303,0,0,0.59013303,119.70473,-102.08927)"
       style="opacity:1;fill:#70561b;fill-opacity:1;stroke-width:0.86686236;stroke-miterlimit:4;stroke-dasharray:none"
       id="g10230-8-2-45-1-8-6">
      <path
         inkscape:connector-curvature="0"
         id="path2654-7-2-1-4-7-0-3-3-4-6-5"
         d="m 176.58516,177.24331 1.95682,0.0276 1.32291,-0.24804 0.60634,0.41341 1.81901,-0.38586 0.55122,0.38586 -0.19293,1.26779 -0.6339,1.07487 -0.0827,0.85438 0.35829,0.60634 2.09462,1.90169 1.21267,2.72852 0.35829,2.8112 -0.41341,2.20486 -1.12999,1.01975 -5.51215,0.44097 -4.079,-0.41341 -1.21267,-1.43316 -0.19292,-3.69315 1.6812,-3.80338 1.90169,-1.95681 0.13781,-1.04731 -0.96463,-1.37804 -0.16536,-0.7717 z"
         style="fill:#70561b;fill-opacity:1;stroke:none;stroke-width:0.86686236;stroke-linecap:butt;stroke-linejoin:miter;stroke-miterlimit:4;stroke-dasharray:none;stroke-opacity:1" />
      <path
         sodipodi:nodetypes="csccsc"
         inkscape:connector-curvature="0"
         id="path2656-7-9-7-9-9-8-6-4-2-8-1"
         d="m 177.41967,180.54429 c -1.85778,1.69084 -3.87672,3.64911 -4.06731,7.66749 -0.10362,2.18477 0.49388,4.15435 3.36242,4.02387 h 5.53971 c 3.23544,0.18697 3.70048,-1.95892 3.69314,-3.96875 -0.0125,-3.41085 -2.11903,-6.41615 -4.21282,-7.70642"
         style="opacity:1;fill:#70561b;fill-opacity:1;stroke:#ffffff;stroke-width:0.86686236;stroke-linecap:butt;stroke-linejoin:miter;stroke-miterlimit:4;stroke-dasharray:none;stroke-opacity:1" />
      <path
         sodipodi:nodetypes="cccc"
         inkscape:connector-curvature="0"
         id="path2658-25-8-0-7-4-2-7-5-2-1-9"
         d="m 177.43777,180.41234 c -1.38013,-1.16906 -1.54545,-2.65409 -1.00608,-3.12202 0.98708,0.0205 5.33871,0 6.18131,0 0.51888,0.47838 0.36241,2.02844 -0.83218,3.11748"
         style="opacity:1;fill:#70561b;fill-opacity:1;stroke:#ffffff;stroke-width:0.86686236;stroke-linecap:butt;stroke-linejoin:miter;stroke-miterlimit:4;stroke-dasharray:none;stroke-opacity:1" />
      <path
         inkscape:connector-curvature="0"
         id="path2664-9-9-9-0-1-8-5-0-4-5-3"
         d="m 177.0762,180.5102 h 4.96738"
         style="fill:#70561b;fill-opacity:1;stroke:#ffffff;stroke-width:0.86686236;stroke-linecap:butt;stroke-linejoin:miter;stroke-miterlimit:4;stroke-dasharray:none;stroke-opacity:1" />
    </g>
    <g
       transform="matrix(0.53122531,0,0,0.53122531,-83.121873,-89.27916)"
       style="opacity:1;fill:#b0882b;fill-opacity:1;stroke-width:0.86686236;stroke-miterlimit:4;stroke-dasharray:none"
       id="g10230-8-2-45-1">
      <path
         inkscape:connector-curvature="0"
         id="path2654-7-2-1-4-7-0-3-3-4"
         d="m 176.58516,177.24331 1.95682,0.0276 1.32291,-0.24804 0.60634,0.41341 1.81901,-0.38586 0.55122,0.38586 -0.19293,1.26779 -0.6339,1.07487 -0.0827,0.85438 0.35829,0.60634 2.09462,1.90169 1.21267,2.72852 0.35829,2.8112 -0.41341,2.20486 -1.12999,1.01975 -5.51215,0.44097 -4.079,-0.41341 -1.21267,-1.43316 -0.19292,-3.69315 1.6812,-3.80338 1.90169,-1.95681 0.13781,-1.04731 -0.96463,-1.37804 -0.16536,-0.7717 z"
         style="fill:#b0882b;fill-opacity:1;stroke:none;stroke-width:0.86686236;stroke-linecap:butt;stroke-linejoin:miter;stroke-miterlimit:4;stroke-dasharray:none;stroke-opacity:1" />
      <path
         sodipodi:nodetypes="csccsc"
         inkscape:connector-curvature="0"
         id="path2656-7-9-7-9-9-8-6-4-2"
         d="m 177.41967,180.54429 c -1.85778,1.69084 -3.87672,3.64911 -4.06731,7.66749 -0.10362,2.18477 0.49388,4.15435 3.36242,4.02387 h 5.53971 c 3.23544,0.18697 3.70048,-1.95892 3.69314,-3.96875 -0.0125,-3.41085 -2.11903,-6.41615 -4.21282,-7.70642"
         style="opacity:1;fill:#b0882b;fill-opacity:1;stroke:#ffffff;stroke-width:0.86686236;stroke-linecap:butt;stroke-linejoin:miter;stroke-miterlimit:4;stroke-dasharray:none;stroke-opacity:1" />
      <path
         sodipodi:nodetypes="cccc"
         inkscape:connector-curvature="0"
         id="path2658-25-8-0-7-4-2-7-5-2"
         d="m 177.43777,180.41234 c -1.38013,-1.16906 -1.54545,-2.65409 -1.00608,-3.12202 0.98708,0.0205 5.33871,0 6.18131,0 0.51888,0.47838 0.36241,2.02844 -0.83218,3.11748"
         style="opacity:1;fill:#b0882b;fill-opacity:1;stroke:#ffffff;stroke-width:0.86686236;stroke-linecap:butt;stroke-linejoin:miter;stroke-miterlimit:4;stroke-dasharray:none;stroke-opacity:1" />
      <path
         inkscape:connector-curvature="0"
         id="path2664-9-9-9-0-1-8-5-0-4"
         d="m 177.0762,180.5102 h 4.96738"
         style="fill:#b0882b;fill-opacity:1;stroke:#ffffff;stroke-width:0.86686236;stroke-linecap:butt;stroke-linejoin:miter;stroke-miterlimit:4;stroke-dasharray:none;stroke-opacity:1" />
    </g>
    <g
       transform="matrix(0.53122531,0,0,0.53122531,-89.292312,-89.239641)"
       style="opacity:1;fill:#b0882b;fill-opacity:1;stroke-width:0.86686236;stroke-miterlimit:4;stroke-dasharray:none"
       id="g10230-8-2-45">
      <path
         inkscape:connector-curvature="0"
         id="path2654-7-2-1-4-7-0-3-3"
         d="m 176.58516,177.24331 1.95682,0.0276 1.32291,-0.24804 0.60634,0.41341 1.81901,-0.38586 0.55122,0.38586 -0.19293,1.26779 -0.6339,1.07487 -0.0827,0.85438 0.35829,0.60634 2.09462,1.90169 1.21267,2.72852 0.35829,2.8112 -0.41341,2.20486 -1.12999,1.01975 -5.51215,0.44097 -4.079,-0.41341 -1.21267,-1.43316 -0.19292,-3.69315 1.6812,-3.80338 1.90169,-1.95681 0.13781,-1.04731 -0.96463,-1.37804 -0.16536,-0.7717 z"
         style="fill:#b0882b;fill-opacity:1;stroke:none;stroke-width:0.86686236;stroke-linecap:butt;stroke-linejoin:miter;stroke-miterlimit:4;stroke-dasharray:none;stroke-opacity:1" />
      <path
         sodipodi:nodetypes="csccsc"
         inkscape:connector-curvature="0"
         id="path2656-7-9-7-9-9-8-6-4"
         d="m 177.41967,180.54429 c -1.85778,1.69084 -3.87672,3.64911 -4.06731,7.66749 -0.10362,2.18477 0.49388,4.15435 3.36242,4.02387 h 5.53971 c 3.23544,0.18697 3.70048,-1.95892 3.69314,-3.96875 -0.0125,-3.41085 -2.11903,-6.41615 -4.21282,-7.70642"
         style="opacity:1;fill:#b0882b;fill-opacity:1;stroke:#ffffff;stroke-width:0.86686236;stroke-linecap:butt;stroke-linejoin:miter;stroke-miterlimit:4;stroke-dasharray:none;stroke-opacity:1" />
      <path
         sodipodi:nodetypes="cccc"
         inkscape:connector-curvature="0"
         id="path2658-25-8-0-7-4-2-7-5"
         d="m 177.43777,180.41234 c -1.38013,-1.16906 -1.54545,-2.65409 -1.00608,-3.12202 0.98708,0.0205 5.33871,0 6.18131,0 0.51888,0.47838 0.36241,2.02844 -0.83218,3.11748"
         style="opacity:1;fill:#b0882b;fill-opacity:1;stroke:#ffffff;stroke-width:0.86686236;stroke-linecap:butt;stroke-linejoin:miter;stroke-miterlimit:4;stroke-dasharray:none;stroke-opacity:1" />
      <path
         inkscape:connector-curvature="0"
         id="path2664-9-9-9-0-1-8-5-0"
         d="m 177.0762,180.5102 h 4.96738"
         style="fill:#b0882b;fill-opacity:1;stroke:#ffffff;stroke-width:0.86686236;stroke-linecap:butt;stroke-linejoin:miter;stroke-miterlimit:4;stroke-dasharray:none;stroke-opacity:1" />
    </g>
    <g
       transform="matrix(0.60119293,0,0,0.60119293,-98.635301,-100.67522)"
       id="g10230"
       style="fill:#daa323;fill-opacity:1">
      <path
         inkscape:connector-curvature="0"
         id="path2654-7-2-1-4-7"
         d="m 176.58516,177.24331 1.95682,0.0276 1.32291,-0.24804 0.60634,0.41341 1.81901,-0.38586 0.55122,0.38586 -0.19293,1.26779 -0.6339,1.07487 -0.0827,0.85438 0.35829,0.60634 2.09462,1.90169 1.21267,2.72852 0.35829,2.8112 -0.41341,2.20486 -1.12999,1.01975 -5.51215,0.44097 -4.079,-0.41341 -1.21267,-1.43316 -0.19292,-3.69315 1.6812,-3.80338 1.90169,-1.95681 0.13781,-1.04731 -0.96463,-1.37804 -0.16536,-0.7717 z"
         style="fill:#daa323;fill-opacity:1;stroke:none;stroke-width:0.26458332px;stroke-linecap:butt;stroke-linejoin:miter;stroke-opacity:1" />
      <path
         sodipodi:nodetypes="csccsc"
         inkscape:connector-curvature="0"
         id="path2656-7-9-7-9-9"
         d="m 177.37623,180.66013 c -1.85778,1.69084 -3.83328,3.53327 -4.02387,7.55165 -0.10362,2.18477 0.49388,4.15435 3.36242,4.02387 h 5.53971 c 3.23544,0.18697 3.70048,-1.95892 3.69314,-3.96875 -0.0125,-3.41085 -2.07559,-6.16998 -4.16938,-7.46025"
         style="opacity:1;fill:#daa323;fill-opacity:1;stroke:#ffffff;stroke-width:1.03489721;stroke-linecap:butt;stroke-linejoin:miter;stroke-miterlimit:4;stroke-dasharray:none;stroke-opacity:1" />
      <path
         sodipodi:nodetypes="cccc"
         inkscape:connector-curvature="0"
         id="path2658-25-8-0-7-4"
         d="m 177.39433,180.06481 c -1.38013,-1.16906 -1.50201,-2.30656 -0.96264,-2.77449 0.98708,0.0205 5.33871,0 6.18131,0 0.51888,0.47838 0.20313,1.62299 -0.99146,2.71203"
         style="opacity:1;fill:#daa323;fill-opacity:1;stroke:#ffffff;stroke-width:1.03489721;stroke-linecap:butt;stroke-linejoin:miter;stroke-miterlimit:4;stroke-dasharray:none;stroke-opacity:1" />
      <path
         inkscape:connector-curvature="0"
         id="path2664-9-9-9-0-1"
         d="m 177.0762,180.5102 h 4.96738"
         style="fill:#daa323;fill-opacity:1;stroke:#ffffff;stroke-width:1.76170397;stroke-linecap:butt;stroke-linejoin:miter;stroke-miterlimit:4;stroke-dasharray:none;stroke-opacity:1" />
    </g>
    <g
       aria-label="$"
       style="font-style:normal;font-weight:normal;font-size:6.05417061px;line-height:1.25;font-family:sans-serif;letter-spacing:0px;word-spacing:0px;fill:#ffffff;fill-opacity:1;stroke:none;stroke-width:0.15135427"
       id="text2662-17-8-0-8-9">
      <path
         d="M 9.0413742,13.916842 H 9.5862496 V 13.49305 c 0.4722254,-0.09687 0.7204464,-0.466171 0.7204464,-1.011047 0,-0.484333 -0.187679,-0.817313 -0.7325548,-1.253213 -0.4480086,-0.357196 -0.569092,-0.569092 -0.569092,-0.847584 0,-0.248221 0.1210834,-0.36325 0.3329794,-0.36325 0.2118959,0 0.3329793,0.115029 0.3329793,0.375358 v 0.163463 h 0.6296341 v -0.121083 c 0,-0.5327674 -0.242167,-0.8960177 -0.7143924,-0.9928844 V 9.0735052 H 9.0413742 V 9.4428096 C 8.5752031,9.5457305 8.3390904,9.9089807 8.3390904,10.423585 c 0,0.460117 0.1876793,0.799151 0.7325547,1.228997 0.4480086,0.351142 0.569092,0.569092 0.569092,0.8718 0,0.272438 -0.1331918,0.381413 -0.3450877,0.381413 -0.211896,0 -0.3450878,-0.108975 -0.3450878,-0.369304 V 12.21562 H 8.3209279 v 0.278492 c 0,0.532767 0.2421668,0.902071 0.7204463,0.998938 z"
         style="font-style:normal;font-variant:normal;font-weight:normal;font-stretch:normal;font-family:'Bebas Neue';-inkscape-font-specification:'Bebas Neue';fill:#ffffff;fill-opacity:1;stroke:none;stroke-width:0.15135427"
         id="path858" />
    </g>
  </g>
</svg>
