<?xml version="1.0" encoding="utf-8"?>
<!-- Generator: Adobe Illustrator 22.1.0, SVG Export Plug-In . SVG Version: 6.00 Build 0)  -->
<svg version="1.1"
	 id="svg7286" inkscape:version="0.92.3 (2405546, 2018-03-11)" sodipodi:docname="INC_LVL2.svg" xmlns:cc="http://creativecommons.org/ns#" xmlns:dc="http://purl.org/dc/elements/1.1/" xmlns:inkscape="http://www.inkscape.org/namespaces/inkscape" xmlns:rdf="http://www.w3.org/1999/02/22-rdf-syntax-ns#" xmlns:sodipodi="http://sodipodi.sourceforge.net/DTD/sodipodi-0.dtd" xmlns:svg="http://www.w3.org/2000/svg"
	 xmlns="http://www.w3.org/2000/svg" xmlns:xlink="http://www.w3.org/1999/xlink" x="0px" y="0px" viewBox="0 0 53.1 51.3"
	 style="enable-background:new 0 0 53.1 51.3;" xml:space="preserve">
<style type="text/css">
	.st0{fill:#D8D8D8;}
	.st1{fill:#DAA323;}
	.st2{fill:#FFFFFF;}
</style>
<sodipodi:namedview  bordercolor="#666666" borderopacity="1.0" fit-margin-bottom="0" fit-margin-left="0" fit-margin-right="0" fit-margin-top="0" gridtolerance="1" guidetolerance="1" id="base" inkscape:current-layer="g847" inkscape:cx="4.8765691" inkscape:cy="25.215652" inkscape:document-units="mm" inkscape:pagecheckerboard="true" inkscape:pageopacity="0.0" inkscape:pageshadow="2" inkscape:window-height="1017" inkscape:window-maximized="1" inkscape:window-width="1920" inkscape:window-x="-8" inkscape:window-y="-8" inkscape:zoom="3.959798" objecttolerance="1" pagecolor="#ffffff" showgrid="false">
	</sodipodi:namedview>
<g>
	<path class="st0" d="M15.8,2.1l20.4,0l0.5,0.6c1.7,2.4,0.3,6.5-3.3,9.8l0.8,0.5c5.8,3.9,12.3,12,12.4,22.9c0,3.2-0.3,7.7-3.4,10.6
		c-1.9,1.8-4.6,2.7-8,2.7c-0.4,0-0.8,0-1.2,0l-16.3,0c-0.3,0-0.5,0-0.8,0c-3.2,0-5.8-0.9-7.6-2.7C7,44.2,6,40.7,6.3,35.7
		c0.6-12.4,6.9-18.4,12.1-23.1c-4.2-3.7-4.7-7.8-3-9.9L15.8,2.1 M17,46.1c0.2,0,0.4,0,0.7,0l16.4,0c0.4,0,0.7,0,1.1,0
		c2.7,0,4.6-0.6,5.9-1.8c1.7-1.6,2.4-4.2,2.4-8.4c0-8.8-5.1-16.2-10.5-20v1.7h-3.1V9.5h2.3c1.6-1.8,2.2-3.4,2.2-4.3l-16.8,0
		c-0.1,1.1,0.5,3.2,3.2,5.4l-0.2,4.3c-5.3,4.8-10.6,9.8-11.2,21c-0.2,4,0.5,6.9,2.1,8.5C12.7,45.5,14.5,46.1,17,46.1 M32.9,13.5
		L32.9,13.5L32.9,13.5L32.9,13.5 M14.8,0l-0.6,0.8l-0.5,0.6c-1.9,2.5-2.1,6.8,1.7,11.1c-4.9,4.6-10.6,11-11.2,23.1
		C4,41.2,5.1,45.2,7.8,47.9c2.2,2.2,5.3,3.3,9.1,3.3c0.3,0,0.6,0,0.8,0l16.2,0c0.4,0,0.9,0,1.3,0c4,0,7.1-1.1,9.4-3.2
		c3.6-3.4,4-8.5,4-12.1c0-10.9-6.1-19.2-12.1-23.7c3-3.7,3.8-7.9,1.8-10.7l-0.5-0.6L37.3,0l-1.1,0L15.8,0L14.8,0L14.8,0z M17,44.1
		c-1.9,0-3.2-0.4-4.1-1.2c-1.2-1.2-1.7-3.6-1.5-6.9c0.5-10.5,5.6-15.1,10.5-19.6l0.6-0.6l0-0.8l0.2-4.3l0.1-1L22.1,9
		c-0.8-0.7-1.3-1.3-1.7-1.8l11,0c0,0.1-0.1,0.1-0.2,0.2h-1.3h-2.1v2.1v8.2v2.1h2.1h3.1h1.3c3.7,3.6,7.1,9.3,7.1,16.2
		c0,3.5-0.6,5.7-1.8,6.9c-0.9,0.8-2.4,1.3-4.5,1.3c-0.3,0-0.6,0-0.9,0l-0.1,0l-0.1,0l-16.4,0h0l0,0C17.4,44.1,17.2,44.1,17,44.1
		L17,44.1z"/>
	<g id="layer6_1_" inkscape:groupmode="layer" inkscape:label="Layer 2">
		<g id="g843_1_" transform="translate(-0.07087054)">
			
				<g id="g2666-57-9-4-8-2_1_" transform="matrix(0.85256089,0,0,0.85256089,-143.47398,-150.72423)" inkscape:export-xdpi="100" inkscape:export-ydpi="100">
				<g id="g838_1_">
					<g id="path2654-7-2-1-5-9_1_">
						<path inkscape:connector-curvature="0" class="st1" d="M188.7,180.8l6.8,0.1l4.6-0.9l2.1,1.4l6.3-1.3l1.9,1.3l-0.7,4.4
							l-2.2,3.7l-0.3,3l1.2,2.1l7.3,6.6l4.2,9.4l1.2,9.7l-1.4,7.6l-3.9,3.5l-19.1,1.5l-14.1-1.4l-4.2-5l-0.7-12.8l5.8-13.2l6.6-6.8
							l0.5-3.6l-3.3-4.8l-0.6-2.7L188.7,180.8z"/>
					</g>
					<g id="path2656-7-9-8-2-4_1_">
						<path inkscape:connector-curvature="0" sodipodi:nodetypes="csccsc" class="st1" d="M191.5,192.6
							c-6.4,5.9-13.3,12.2-13.9,26.2c-0.4,7.6,1.7,14.4,11.6,13.9h19.2c11.2,0.6,12.8-6.8,12.8-13.7c0-11.8-7.2-21.4-14.4-25.8"/>
						<path class="st2" d="M209.7,234.5c-0.5,0-0.9,0-1.4,0l-19.1,0c-4.2,0.2-7.6-0.9-9.9-3.2c-2.7-2.7-3.8-6.8-3.5-12.6
							c0.7-14.8,8.4-21.8,14.5-27.4l2.4,2.6c-6.3,5.7-12.7,11.6-13.4,24.9c-0.2,4.7,0.6,8,2.5,9.9c1.6,1.6,4,2.3,7.3,2.1l19.3,0
							c3.7,0.2,6.5-0.5,8.2-2.1c1.9-1.8,2.8-5,2.8-9.8c0-11-6.9-20.2-13.6-24.3l1.9-3c7,4.3,15.2,14.1,15.3,27.4
							c0,3.7-0.4,9.1-3.9,12.4C216.8,233.4,213.7,234.5,209.7,234.5z"/>
					</g>
					<g id="path2658-25-8-1-7-9_1_">
						<path inkscape:connector-curvature="0" sodipodi:nodetypes="cccc" class="st1" d="M191.5,190.5c-4.4-3.7-5.1-7.8-3.7-9.5
							l22.1,0c1.3,1.9,0.1,5.8-3.8,9.3"/>
						<path class="st2" d="M190.4,191.9c-5.3-4.5-6-9.4-4-12l0.5-0.7l23.9,0l0.5,0.8c2,2.8,0.3,7.7-4,11.7l-2.4-2.6
							c2.7-2.5,3.7-4.9,3.7-6.2l-19.7,0c-0.2,1.3,0.6,3.8,3.7,6.4L190.4,191.9z"/>
					</g>
					<g id="text2662-17-8-9-2-0_1_">
						<g id="path823_1_">
							<path class="st2" d="M197.4,227.1h3.1v-2.4c2.7-0.6,4.2-2.7,4.2-5.8c0-2.8-1.1-4.7-4.2-7.2c-2.6-2.1-3.3-3.3-3.3-4.9
								c0-1.4,0.7-2.1,1.9-2.1c1.2,0,1.9,0.7,1.9,2.2v0.9h3.6V207c0-3.1-1.4-5.2-4.1-5.7v-2.1h-3.1v2.1c-2.7,0.6-4.1,2.7-4.1,5.7
								c0,2.7,1.1,4.6,4.2,7.1c2.6,2,3.3,3.3,3.3,5c0,1.6-0.8,2.2-2,2.2s-2-0.6-2-2.1v-1.9h-3.6v1.6c0,3.1,1.4,5.2,4.2,5.8
								L197.4,227.1z"/>
						</g>
					</g>
					<g id="path2664-9-9-6-9-4_1_">
						<path inkscape:connector-curvature="0" class="st2" d="M190.4,192.1h17.2"/>
						<rect x="191.7" y="189.5" class="st2" width="14.7" height="5.2"/>
					</g>
				</g>
			</g>
		</g>
	</g>
</g>
</svg>
