<?xml version="1.0" encoding="UTF-8" standalone="no"?>
<!-- Created with Inkscape (http://www.inkscape.org/) -->

<svg
   xmlns:dc="http://purl.org/dc/elements/1.1/"
   xmlns:cc="http://creativecommons.org/ns#"
   xmlns:rdf="http://www.w3.org/1999/02/22-rdf-syntax-ns#"
   xmlns:svg="http://www.w3.org/2000/svg"
   xmlns="http://www.w3.org/2000/svg"
   xmlns:sodipodi="http://sodipodi.sourceforge.net/DTD/sodipodi-0.dtd"
   xmlns:inkscape="http://www.inkscape.org/namespaces/inkscape"
   width="18.73344mm"
   height="18.109369mm"
   viewBox="0 0 18.733441 18.109369"
   version="1.1"
   id="svg7286"
   inkscape:version="0.92.3 (2405546, 2018-03-11)"
   sodipodi:docname="proponente_LVL_5.svg">
  <defs
     id="defs7280" />
  <sodipodi:namedview
     id="base"
     pagecolor="#ffffff"
     bordercolor="#666666"
     borderopacity="1.0"
     inkscape:pageopacity="0.0"
     inkscape:pageshadow="2"
     inkscape:zoom="5.6568543"
     inkscape:cx="51.923654"
     inkscape:cy="34.036441"
     inkscape:document-units="mm"
     inkscape:current-layer="g877"
     showgrid="false"
     fit-margin-top="0"
     fit-margin-left="0"
     fit-margin-right="0"
     fit-margin-bottom="0"
     inkscape:pagecheckerboard="true"
     gridtolerance="1"
     objecttolerance="1"
     guidetolerance="1"
     inkscape:window-width="1920"
     inkscape:window-height="1017"
     inkscape:window-x="-8"
     inkscape:window-y="-8"
     inkscape:window-maximized="1"
     showguides="true"
     inkscape:guide-bbox="true">
    <sodipodi:guide
       position="9.2709118,14.315624"
       orientation="1,0"
       id="guide898"
       inkscape:locked="false" />
  </sodipodi:namedview>
  <metadata
     id="metadata7283">
    <rdf:RDF>
      <cc:Work
         rdf:about="">
        <dc:format>image/svg+xml</dc:format>
        <dc:type
           rdf:resource="http://purl.org/dc/dcmitype/StillImage" />
        <dc:title></dc:title>
      </cc:Work>
    </rdf:RDF>
  </metadata>
  <g
     inkscape:groupmode="layer"
     id="layer6"
     inkscape:label="Layer 2"
     style="display:inline">
    <g
       id="g843"
       transform="translate(-0.07087054)">
      <g
         inkscape:export-ydpi="100"
         inkscape:export-xdpi="100"
         style="opacity:1;fill:#daa323;fill-opacity:1"
         id="g2666-57-9-4-8-2"
         transform="matrix(0.85256089,0,0,0.85256089,-143.47398,-150.72423)">
        <g
           transform="matrix(1.2464143,0,0,1.2464364,-62.048694,41.474726)"
           style="display:inline;opacity:1"
           id="g877">
          <g
             id="g1292"
             transform="matrix(1.1027332,0,0,1.1027332,-10.215019,-0.88509053)">
            <path
               sodipodi:type="star"
               style="display:inline;opacity:1;fill:#ffffff;fill-opacity:1;stroke:#ffffff;stroke-width:0.47791967;stroke-linecap:round;stroke-linejoin:round;stroke-miterlimit:4;stroke-dasharray:none;stroke-opacity:1"
               id="path11119"
               sodipodi:sides="3"
               sodipodi:cx="192.13609"
               sodipodi:cy="122.65888"
               sodipodi:r1="6.1954064"
               sodipodi:r2="3.0977032"
               sodipodi:arg1="1.5707963"
               sodipodi:arg2="2.6179939"
               inkscape:flatsided="false"
               inkscape:rounded="0"
               inkscape:randomized="0"
               d="m 192.13609,128.85429 -2.68269,-4.64656 -2.68269,-4.64655 5.36538,0 5.36538,0 -2.68269,4.64655 z"
               inkscape:transform-center-y="1.0267964"
               transform="matrix(0.93889559,0,0,0.62384866,4.4279466,34.168975)"
               inkscape:transform-center-x="-1.1062188e-006" />
            <g
               id="g10249-3-8-3-4-2-2-6"
               style="display:inline;opacity:1;fill:#212a2d;fill-opacity:1"
               transform="matrix(0.67919812,0,0,0.61153051,30.877025,57.281847)">
              <path
                 style="opacity:1;fill:#212a2d;fill-opacity:1;stroke:#ffffff;stroke-width:0.53864425;stroke-linejoin:round;stroke-miterlimit:4;stroke-dasharray:none;stroke-opacity:1"
                 d="m 225.21034,78.140506 c -0.21071,-0.283064 -0.22149,-0.330544 -0.18774,-0.826413 0.0481,-0.70583 0.42728,-1.214509 0.81595,-1.745975 0.53138,-0.726613 1.41045,-1.565206 1.55304,-1.404467 l 0.19723,0.222308 c 0.2735,0.308318 0.78842,0.567169 1.13067,0.568394 0.32703,8.73e-4 0.93868,-0.308484 1.14206,-0.578186 0.0753,-0.09977 0.20535,-0.18139 0.28912,-0.18139 0.23913,0 1.06863,0.881952 1.51278,1.298593 0.54703,0.513143 0.79492,1.031456 0.83874,1.753606 0.0336,0.553518 0.12035,4.517509 -0.13061,4.845156 l -3.78054,-0.05638 z"
                 id="path10187-8-2-8-8-3-6-1-7"
                 inkscape:connector-curvature="0"
                 sodipodi:nodetypes="cssscccsccccc" />
              <g
                 style="fill:#212a2d;fill-opacity:1"
                 id="g10240-6-4-3-0-0-3-8"
                 transform="translate(0.04973075)">
                <path
                   inkscape:export-ydpi="100"
                   inkscape:export-xdpi="100"
                   sodipodi:type="star"
                   style="opacity:1;fill:#212a2d;fill-opacity:1;stroke:#ffffff;stroke-width:0.38669568;stroke-miterlimit:4;stroke-dasharray:none;stroke-opacity:1"
                   id="path2670-80-8-7-2-6-2-9-9-2-9"
                   sodipodi:sides="3"
                   sodipodi:cx="228.71294"
                   sodipodi:cy="75.351006"
                   sodipodi:r1="2.0765183"
                   sodipodi:r2="1.0382591"
                   sodipodi:arg1="1.5707963"
                   sodipodi:arg2="2.6179939"
                   inkscape:flatsided="false"
                   inkscape:rounded="0"
                   inkscape:randomized="0"
                   d="m 228.71294,77.427524 -0.89916,-1.557389 -0.89916,-1.557389 1.79832,0 1.79831,0 -0.89915,1.557389 z"
                   inkscape:transform-center-y="0.65353628"
                   inkscape:transform-center-x="-4.2754102e-006"
                   transform="matrix(0.93044432,0,0,0.90727408,15.908284,6.9699212)" />
                <path
                   style="opacity:1;fill:#212a2d;fill-opacity:1;stroke:#ffffff;stroke-width:0.38669568;stroke-linecap:butt;stroke-linejoin:miter;stroke-miterlimit:4;stroke-dasharray:none;stroke-opacity:1"
                   d="m 228.76764,77.059168 c -0.0303,0.0529 -0.69674,1.31065 -0.69674,1.31065 l 0.0526,3.001401"
                   id="path2674-7-2-3-0-1-0-5-0-4-9"
                   inkscape:connector-curvature="0"
                   sodipodi:nodetypes="ccc"
                   inkscape:export-xdpi="100"
                   inkscape:export-ydpi="100" />
                <path
                   sodipodi:nodetypes="cc"
                   inkscape:export-ydpi="100"
                   inkscape:export-xdpi="100"
                   style="opacity:1;fill:#212a2d;fill-opacity:1;stroke:#ffffff;stroke-width:0.40925291px;stroke-linecap:butt;stroke-linejoin:miter;stroke-opacity:1"
                   d="m 229.07089,75.085805 c 0,0.03016 0.47566,0.821101 0.47566,0.821101"
                   id="path2680-86-5-0-2-0-7-9-5-3-3"
                   inkscape:connector-curvature="0" />
                <path
                   inkscape:export-ydpi="100"
                   inkscape:export-xdpi="100"
                   style="opacity:1;fill:#212a2d;fill-opacity:1;stroke:#ffffff;stroke-width:0.40925291px;stroke-linecap:butt;stroke-linejoin:miter;stroke-opacity:1"
                   d="m 228.40939,75.02279 c 0,0.03016 -0.55388,0.887626 -0.55388,0.887626"
                   id="path2682-9-6-7-2-6-6-4-1-7-7"
                   inkscape:connector-curvature="0"
                   sodipodi:nodetypes="cc" />
              </g>
              <path
                 sodipodi:nodetypes="ccssccscscscc"
                 inkscape:connector-curvature="0"
                 id="path10187-9-0-9-8-0-2-8"
                 d="m 226.96977,73.241227 c -0.0519,-0.157213 -0.1495,-0.285847 -0.21692,-0.285847 -0.0674,0 -0.15973,-0.09776 -0.20517,-0.21725 -0.1025,-0.269614 -0.10908,-1.053201 -0.009,-1.053201 0.0406,0 0.0993,-0.225704 0.1305,-0.501566 0.10767,-0.951712 0.64272,-1.734756 1.39178,-2.036922 0.33762,-0.136194 1.14333,-0.140237 1.4864,-0.0079 0.70013,0.270935 1.26861,1.063072 1.37128,1.91074 0.0206,0.169761 0.0326,0.371094 0.083,0.532708 0.0187,0.06012 0.0963,0.08974 0.11461,0.130751 0.17696,0.396156 -0.0128,1.241733 -0.27121,1.24252 -0.0566,1.84e-4 -0.17112,0.166261 -0.25451,0.369082 -0.72416,1.931268 -2.79089,2.263542 -3.62076,-0.08312 z"
                 style="fill:#212a2d;fill-opacity:1;stroke:#ffffff;stroke-width:0.58499998;stroke-miterlimit:4;stroke-dasharray:none;stroke-opacity:1" />
            </g>
            <g
               id="g10249-3-8-3-4-2-2-6-7"
               style="display:inline;opacity:1;fill:#212a2d;fill-opacity:1"
               transform="matrix(0.67919812,0,0,0.61153051,27.97204,57.237832)">
              <path
                 style="opacity:1;fill:#212a2d;fill-opacity:1;stroke:#ffffff;stroke-width:0.53864425;stroke-linejoin:round;stroke-miterlimit:4;stroke-dasharray:none;stroke-opacity:1"
                 d="m 225.21034,78.140506 c -0.21071,-0.283064 -0.22149,-0.330544 -0.18774,-0.826413 0.0481,-0.70583 0.42728,-1.214509 0.81595,-1.745975 0.53138,-0.726613 1.41045,-1.565206 1.55304,-1.404467 l 0.19723,0.222308 c 0.2735,0.308318 0.78842,0.567169 1.13067,0.568394 0.32703,8.73e-4 0.93868,-0.308484 1.14206,-0.578186 0.0753,-0.09977 0.20535,-0.18139 0.28912,-0.18139 0.23913,0 1.06863,0.881952 1.51278,1.298593 0.54703,0.513143 0.79492,1.031456 0.83874,1.753606 0.0336,0.553518 0.12035,4.517509 -0.13061,4.845156 l -3.78054,-0.05638 z"
                 id="path10187-8-2-8-8-3-6-1-7-5"
                 inkscape:connector-curvature="0"
                 sodipodi:nodetypes="cssscccsccccc" />
              <g
                 style="fill:#212a2d;fill-opacity:1"
                 id="g10240-6-4-3-0-0-3-8-9"
                 transform="translate(0.04973075)">
                <path
                   inkscape:export-ydpi="100"
                   inkscape:export-xdpi="100"
                   sodipodi:type="star"
                   style="opacity:1;fill:#212a2d;fill-opacity:1;stroke:#ffffff;stroke-width:0.38669568;stroke-miterlimit:4;stroke-dasharray:none;stroke-opacity:1"
                   id="path2670-80-8-7-2-6-2-9-9-2-9-4"
                   sodipodi:sides="3"
                   sodipodi:cx="228.71294"
                   sodipodi:cy="75.351006"
                   sodipodi:r1="2.0765183"
                   sodipodi:r2="1.0382591"
                   sodipodi:arg1="1.5707963"
                   sodipodi:arg2="2.6179939"
                   inkscape:flatsided="false"
                   inkscape:rounded="0"
                   inkscape:randomized="0"
                   d="m 228.71294,77.427524 -0.89916,-1.557389 -0.89916,-1.557389 1.79832,0 1.79831,0 -0.89915,1.557389 z"
                   inkscape:transform-center-y="0.65353628"
                   inkscape:transform-center-x="-4.2754102e-006"
                   transform="matrix(0.93044432,0,0,0.90727408,15.908284,6.9699212)" />
                <path
                   style="opacity:1;fill:#212a2d;fill-opacity:1;stroke:#ffffff;stroke-width:0.38669568;stroke-linecap:butt;stroke-linejoin:miter;stroke-miterlimit:4;stroke-dasharray:none;stroke-opacity:1"
                   d="m 228.76764,77.059168 c -0.0303,0.0529 -0.69674,1.31065 -0.69674,1.31065 l 0.0526,3.001401"
                   id="path2674-7-2-3-0-1-0-5-0-4-9-5"
                   inkscape:connector-curvature="0"
                   sodipodi:nodetypes="ccc"
                   inkscape:export-xdpi="100"
                   inkscape:export-ydpi="100" />
                <path
                   sodipodi:nodetypes="cc"
                   inkscape:export-ydpi="100"
                   inkscape:export-xdpi="100"
                   style="opacity:1;fill:#212a2d;fill-opacity:1;stroke:#ffffff;stroke-width:0.40925291px;stroke-linecap:butt;stroke-linejoin:miter;stroke-opacity:1"
                   d="m 229.07089,75.085805 c 0,0.03016 0.47566,0.821101 0.47566,0.821101"
                   id="path2680-86-5-0-2-0-7-9-5-3-3-7"
                   inkscape:connector-curvature="0" />
                <path
                   inkscape:export-ydpi="100"
                   inkscape:export-xdpi="100"
                   style="opacity:1;fill:#212a2d;fill-opacity:1;stroke:#ffffff;stroke-width:0.40925291px;stroke-linecap:butt;stroke-linejoin:miter;stroke-opacity:1"
                   d="m 228.40939,75.02279 c 0,0.03016 -0.55388,0.887626 -0.55388,0.887626"
                   id="path2682-9-6-7-2-6-6-4-1-7-7-4"
                   inkscape:connector-curvature="0"
                   sodipodi:nodetypes="cc" />
              </g>
              <path
                 sodipodi:nodetypes="ccssccscscscc"
                 inkscape:connector-curvature="0"
                 id="path10187-9-0-9-8-0-2-8-8"
                 d="m 226.96977,73.241227 c -0.0519,-0.157213 -0.1495,-0.285847 -0.21692,-0.285847 -0.0674,0 -0.15973,-0.09776 -0.20517,-0.21725 -0.1025,-0.269614 -0.10908,-1.053201 -0.009,-1.053201 0.0406,0 0.0993,-0.225704 0.1305,-0.501566 0.10767,-0.951712 0.64272,-1.734756 1.39178,-2.036922 0.33762,-0.136194 1.14333,-0.140237 1.4864,-0.0079 0.70013,0.270935 1.26861,1.063072 1.37128,1.91074 0.0206,0.169761 0.0326,0.371094 0.083,0.532708 0.0187,0.06012 0.0963,0.08974 0.11461,0.130751 0.17696,0.396156 -0.0128,1.241733 -0.27121,1.24252 -0.0566,1.84e-4 -0.17112,0.166261 -0.25451,0.369082 -0.72416,1.931268 -2.79089,2.263542 -3.62076,-0.08312 z"
                 style="fill:#212a2d;fill-opacity:1;stroke:#ffffff;stroke-width:0.58499998;stroke-miterlimit:4;stroke-dasharray:none;stroke-opacity:1" />
            </g>
            <g
               id="g10249-3-8-3-4-2-2"
               style="display:inline;opacity:1;fill:#2a4148;fill-opacity:1"
               transform="matrix(0.67919812,0,0,0.61153051,32.089402,58.55162)">
              <path
                 style="opacity:1;fill:#2a4148;fill-opacity:1;stroke:#ffffff;stroke-width:0.53864425;stroke-linejoin:round;stroke-miterlimit:4;stroke-dasharray:none;stroke-opacity:1"
                 d="m 225.21034,78.140506 c -0.21071,-0.283064 -0.22149,-0.330544 -0.18774,-0.826413 0.0481,-0.70583 0.42728,-1.214509 0.81595,-1.745975 0.53138,-0.726613 1.41045,-1.565206 1.55304,-1.404467 l 0.19723,0.222308 c 0.2735,0.308318 0.78842,0.567169 1.13067,0.568394 0.32703,8.73e-4 0.93868,-0.308484 1.14206,-0.578186 0.0753,-0.09977 0.20535,-0.18139 0.28912,-0.18139 0.23913,0 1.06863,0.881952 1.51278,1.298593 0.54703,0.513143 0.79492,1.031456 0.83874,1.753606 0.0336,0.553518 0.12035,4.517509 -0.13061,4.845156 l -3.78054,-0.05638 z"
                 id="path10187-8-2-8-8-3-6-1"
                 inkscape:connector-curvature="0"
                 sodipodi:nodetypes="cssscccsccccc" />
              <g
                 style="fill:#2a4148;fill-opacity:1"
                 id="g10240-6-4-3-0-0-3"
                 transform="translate(0.04973075)">
                <path
                   inkscape:export-ydpi="100"
                   inkscape:export-xdpi="100"
                   sodipodi:type="star"
                   style="opacity:1;fill:#2a4148;fill-opacity:1;stroke:#ffffff;stroke-width:0.38669568;stroke-miterlimit:4;stroke-dasharray:none;stroke-opacity:1"
                   id="path2670-80-8-7-2-6-2-9-9-2"
                   sodipodi:sides="3"
                   sodipodi:cx="228.71294"
                   sodipodi:cy="75.351006"
                   sodipodi:r1="2.0765183"
                   sodipodi:r2="1.0382591"
                   sodipodi:arg1="1.5707963"
                   sodipodi:arg2="2.6179939"
                   inkscape:flatsided="false"
                   inkscape:rounded="0"
                   inkscape:randomized="0"
                   d="m 228.71294,77.427524 -0.89916,-1.557389 -0.89916,-1.557389 1.79832,0 1.79831,0 -0.89915,1.557389 z"
                   inkscape:transform-center-y="0.65353628"
                   inkscape:transform-center-x="-4.2754102e-006"
                   transform="matrix(0.93044432,0,0,0.90727408,15.908284,6.9699212)" />
                <path
                   style="opacity:1;fill:#2a4148;fill-opacity:1;stroke:#ffffff;stroke-width:0.38669568;stroke-linecap:butt;stroke-linejoin:miter;stroke-miterlimit:4;stroke-dasharray:none;stroke-opacity:1"
                   d="m 228.76764,77.059168 c -0.0303,0.0529 -0.69674,1.31065 -0.69674,1.31065 l 0.0526,3.001401"
                   id="path2674-7-2-3-0-1-0-5-0-4"
                   inkscape:connector-curvature="0"
                   sodipodi:nodetypes="ccc"
                   inkscape:export-xdpi="100"
                   inkscape:export-ydpi="100" />
                <path
                   sodipodi:nodetypes="cc"
                   inkscape:export-ydpi="100"
                   inkscape:export-xdpi="100"
                   style="opacity:1;fill:#2a4148;fill-opacity:1;stroke:#ffffff;stroke-width:0.40925291px;stroke-linecap:butt;stroke-linejoin:miter;stroke-opacity:1"
                   d="m 229.07089,75.085805 c 0,0.03016 0.47566,0.821101 0.47566,0.821101"
                   id="path2680-86-5-0-2-0-7-9-5-3"
                   inkscape:connector-curvature="0" />
                <path
                   inkscape:export-ydpi="100"
                   inkscape:export-xdpi="100"
                   style="opacity:1;fill:#2a4148;fill-opacity:1;stroke:#ffffff;stroke-width:0.40925291px;stroke-linecap:butt;stroke-linejoin:miter;stroke-opacity:1"
                   d="m 228.40939,75.02279 c 0,0.03016 -0.55388,0.887626 -0.55388,0.887626"
                   id="path2682-9-6-7-2-6-6-4-1-7"
                   inkscape:connector-curvature="0"
                   sodipodi:nodetypes="cc" />
              </g>
              <path
                 sodipodi:nodetypes="ccssccscscscc"
                 inkscape:connector-curvature="0"
                 id="path10187-9-0-9-8-0-2"
                 d="m 226.96977,73.241227 c -0.0519,-0.157213 -0.1495,-0.285847 -0.21692,-0.285847 -0.0674,0 -0.15973,-0.09776 -0.20517,-0.21725 -0.1025,-0.269614 -0.10908,-1.053201 -0.009,-1.053201 0.0406,0 0.0993,-0.225704 0.1305,-0.501566 0.10767,-0.951712 0.64272,-1.734756 1.39178,-2.036922 0.33762,-0.136194 1.14333,-0.140237 1.4864,-0.0079 0.70013,0.270935 1.26861,1.063072 1.37128,1.91074 0.0206,0.169761 0.0326,0.371094 0.083,0.532708 0.0187,0.06012 0.0963,0.08974 0.11461,0.130751 0.17696,0.396156 -0.0128,1.241733 -0.27121,1.24252 -0.0566,1.84e-4 -0.17112,0.166261 -0.25451,0.369082 -0.72416,1.931268 -2.79089,2.263542 -3.62076,-0.08312 z"
                 style="fill:#2a4148;fill-opacity:1;stroke:#ffffff;stroke-width:0.58499998;stroke-miterlimit:4;stroke-dasharray:none;stroke-opacity:1" />
            </g>
            <g
               id="g10249-3-8-3-4-2-2-8"
               style="display:inline;opacity:1;fill:#2a4148;fill-opacity:1"
               transform="matrix(-0.67919812,0,0,0.61153051,337.5773,58.55162)">
              <path
                 style="opacity:1;fill:#2a4148;fill-opacity:1;stroke:#ffffff;stroke-width:0.53864425;stroke-linejoin:round;stroke-miterlimit:4;stroke-dasharray:none;stroke-opacity:1"
                 d="m 225.21034,78.140506 c -0.21071,-0.283064 -0.22149,-0.330544 -0.18774,-0.826413 0.0481,-0.70583 0.42728,-1.214509 0.81595,-1.745975 0.53138,-0.726613 1.41045,-1.565206 1.55304,-1.404467 l 0.19723,0.222308 c 0.2735,0.308318 0.78842,0.567169 1.13067,0.568394 0.32703,8.73e-4 0.93868,-0.308484 1.14206,-0.578186 0.0753,-0.09977 0.20535,-0.18139 0.28912,-0.18139 0.23913,0 1.06863,0.881952 1.51278,1.298593 0.54703,0.513143 0.79492,1.031456 0.83874,1.753606 0.0336,0.553518 0.12035,4.517509 -0.13061,4.845156 l -3.78054,-0.05638 z"
                 id="path10187-8-2-8-8-3-6-1-1"
                 inkscape:connector-curvature="0"
                 sodipodi:nodetypes="cssscccsccccc" />
              <g
                 style="fill:#2a4148;fill-opacity:1"
                 id="g10240-6-4-3-0-0-3-2"
                 transform="translate(0.04973075)">
                <path
                   inkscape:export-ydpi="100"
                   inkscape:export-xdpi="100"
                   sodipodi:type="star"
                   style="opacity:1;fill:#2a4148;fill-opacity:1;stroke:#ffffff;stroke-width:0.38669568;stroke-miterlimit:4;stroke-dasharray:none;stroke-opacity:1"
                   id="path2670-80-8-7-2-6-2-9-9-2-8"
                   sodipodi:sides="3"
                   sodipodi:cx="228.71294"
                   sodipodi:cy="75.351006"
                   sodipodi:r1="2.0765183"
                   sodipodi:r2="1.0382591"
                   sodipodi:arg1="1.5707963"
                   sodipodi:arg2="2.6179939"
                   inkscape:flatsided="false"
                   inkscape:rounded="0"
                   inkscape:randomized="0"
                   d="m 228.71294,77.427524 -0.89916,-1.557389 -0.89916,-1.557389 1.79832,0 1.79831,0 -0.89915,1.557389 z"
                   inkscape:transform-center-y="0.65353628"
                   inkscape:transform-center-x="-4.2754102e-006"
                   transform="matrix(0.93044432,0,0,0.90727408,15.908284,6.9699212)" />
                <path
                   style="opacity:1;fill:#2a4148;fill-opacity:1;stroke:#ffffff;stroke-width:0.38669568;stroke-linecap:butt;stroke-linejoin:miter;stroke-miterlimit:4;stroke-dasharray:none;stroke-opacity:1"
                   d="m 228.76764,77.059168 c -0.0303,0.0529 -0.69674,1.31065 -0.69674,1.31065 l 0.0526,3.001401"
                   id="path2674-7-2-3-0-1-0-5-0-4-5"
                   inkscape:connector-curvature="0"
                   sodipodi:nodetypes="ccc"
                   inkscape:export-xdpi="100"
                   inkscape:export-ydpi="100" />
                <path
                   sodipodi:nodetypes="cc"
                   inkscape:export-ydpi="100"
                   inkscape:export-xdpi="100"
                   style="opacity:1;fill:#2a4148;fill-opacity:1;stroke:#ffffff;stroke-width:0.40925291px;stroke-linecap:butt;stroke-linejoin:miter;stroke-opacity:1"
                   d="m 229.07089,75.085805 c 0,0.03016 0.47566,0.821101 0.47566,0.821101"
                   id="path2680-86-5-0-2-0-7-9-5-3-5"
                   inkscape:connector-curvature="0" />
                <path
                   inkscape:export-ydpi="100"
                   inkscape:export-xdpi="100"
                   style="opacity:1;fill:#2a4148;fill-opacity:1;stroke:#ffffff;stroke-width:0.40925291px;stroke-linecap:butt;stroke-linejoin:miter;stroke-opacity:1"
                   d="m 228.40939,75.02279 c 0,0.03016 -0.55388,0.887626 -0.55388,0.887626"
                   id="path2682-9-6-7-2-6-6-4-1-7-2"
                   inkscape:connector-curvature="0"
                   sodipodi:nodetypes="cc" />
              </g>
              <path
                 sodipodi:nodetypes="ccssccscscscc"
                 inkscape:connector-curvature="0"
                 id="path10187-9-0-9-8-0-2-0"
                 d="m 226.96977,73.241227 c -0.0519,-0.157213 -0.1495,-0.285847 -0.21692,-0.285847 -0.0674,0 -0.15973,-0.09776 -0.20517,-0.21725 -0.1025,-0.269614 -0.10908,-1.053201 -0.009,-1.053201 0.0406,0 0.0993,-0.225704 0.1305,-0.501566 0.10767,-0.951712 0.64272,-1.734756 1.39178,-2.036922 0.33762,-0.136194 1.14333,-0.140237 1.4864,-0.0079 0.70013,0.270935 1.26861,1.063072 1.37128,1.91074 0.0206,0.169761 0.0326,0.371094 0.083,0.532708 0.0187,0.06012 0.0963,0.08974 0.11461,0.130751 0.17696,0.396156 -0.0128,1.241733 -0.27121,1.24252 -0.0566,1.84e-4 -0.17112,0.166261 -0.25451,0.369082 -0.72416,1.931268 -2.79089,2.263542 -3.62076,-0.08312 z"
                 style="fill:#2a4148;fill-opacity:1;stroke:#ffffff;stroke-width:0.58499998;stroke-miterlimit:4;stroke-dasharray:none;stroke-opacity:1" />
            </g>
            <g
               id="g10249-3-8-3-4-2"
               style="display:inline;opacity:1;fill:#2a4148;fill-opacity:1"
               transform="matrix(0.67919812,0,0,0.61153051,29.559487,58.487843)">
              <path
                 style="opacity:1;fill:#2a4148;fill-opacity:1;stroke:#ffffff;stroke-width:0.53864425;stroke-linejoin:round;stroke-miterlimit:4;stroke-dasharray:none;stroke-opacity:1"
                 d="m 225.21034,78.140506 c -0.21071,-0.283064 -0.22149,-0.330544 -0.18774,-0.826413 0.0481,-0.70583 0.42728,-1.214509 0.81595,-1.745975 0.53138,-0.726613 1.41045,-1.565206 1.55304,-1.404467 l 0.19723,0.222308 c 0.2735,0.308318 0.78842,0.567169 1.13067,0.568394 0.32703,8.73e-4 0.93868,-0.308484 1.14206,-0.578186 0.0753,-0.09977 0.20535,-0.18139 0.28912,-0.18139 0.23913,0 1.06863,0.881952 1.51278,1.298593 0.54703,0.513143 0.79492,1.031456 0.83874,1.753606 0.0336,0.553518 0.0287,0.573294 -0.22226,0.900941 l -3.68889,3.887837 z"
                 id="path10187-8-2-8-8-3-6"
                 inkscape:connector-curvature="0"
                 sodipodi:nodetypes="cssscccsccccc" />
              <g
                 style="fill:#2a4148;fill-opacity:1"
                 id="g10240-6-4-3-0-0"
                 transform="translate(0.04973075)">
                <path
                   inkscape:export-ydpi="100"
                   inkscape:export-xdpi="100"
                   sodipodi:type="star"
                   style="opacity:1;fill:#2a4148;fill-opacity:1;stroke:#ffffff;stroke-width:0.38669568;stroke-miterlimit:4;stroke-dasharray:none;stroke-opacity:1"
                   id="path2670-80-8-7-2-6-2-9-9"
                   sodipodi:sides="3"
                   sodipodi:cx="228.71294"
                   sodipodi:cy="75.351006"
                   sodipodi:r1="2.0765183"
                   sodipodi:r2="1.0382591"
                   sodipodi:arg1="1.5707963"
                   sodipodi:arg2="2.6179939"
                   inkscape:flatsided="false"
                   inkscape:rounded="0"
                   inkscape:randomized="0"
                   d="m 228.71294,77.427524 -0.89916,-1.557389 -0.89916,-1.557389 1.79832,0 1.79831,0 -0.89915,1.557389 z"
                   inkscape:transform-center-y="0.65353628"
                   inkscape:transform-center-x="-4.2754102e-006"
                   transform="matrix(0.93044432,0,0,0.90727408,15.908284,6.9699212)" />
                <path
                   style="opacity:1;fill:#2a4148;fill-opacity:1;stroke:#ffffff;stroke-width:0.38669568;stroke-linecap:butt;stroke-linejoin:miter;stroke-miterlimit:4;stroke-dasharray:none;stroke-opacity:1"
                   d="m 228.76764,77.059168 c -0.0303,0.0529 -0.69674,1.31065 -0.69674,1.31065 l 0.0526,3.001401"
                   id="path2674-7-2-3-0-1-0-5-0"
                   inkscape:connector-curvature="0"
                   sodipodi:nodetypes="ccc"
                   inkscape:export-xdpi="100"
                   inkscape:export-ydpi="100" />
                <path
                   sodipodi:nodetypes="cc"
                   inkscape:export-ydpi="100"
                   inkscape:export-xdpi="100"
                   style="opacity:1;fill:#2a4148;fill-opacity:1;stroke:#ffffff;stroke-width:0.40925291px;stroke-linecap:butt;stroke-linejoin:miter;stroke-opacity:1"
                   d="m 229.07089,75.085805 c 0,0.03016 0.47566,0.821101 0.47566,0.821101"
                   id="path2680-86-5-0-2-0-7-9-5"
                   inkscape:connector-curvature="0" />
                <path
                   inkscape:export-ydpi="100"
                   inkscape:export-xdpi="100"
                   style="opacity:1;fill:#2a4148;fill-opacity:1;stroke:#ffffff;stroke-width:0.40925291px;stroke-linecap:butt;stroke-linejoin:miter;stroke-opacity:1"
                   d="m 228.40939,75.02279 c 0,0.03016 -0.55388,0.887626 -0.55388,0.887626"
                   id="path2682-9-6-7-2-6-6-4-1"
                   inkscape:connector-curvature="0"
                   sodipodi:nodetypes="cc" />
              </g>
              <path
                 sodipodi:nodetypes="ccssccscscscc"
                 inkscape:connector-curvature="0"
                 id="path10187-9-0-9-8-0"
                 d="m 226.96977,73.241227 c -0.0519,-0.157213 -0.1495,-0.285847 -0.21692,-0.285847 -0.0674,0 -0.15973,-0.09776 -0.20517,-0.21725 -0.1025,-0.269614 -0.10908,-1.053201 -0.009,-1.053201 0.0406,0 0.0993,-0.225704 0.1305,-0.501566 0.10767,-0.951712 0.64272,-1.734756 1.39178,-2.036922 0.33762,-0.136194 1.14333,-0.140237 1.4864,-0.0079 0.70013,0.270935 1.26861,1.063072 1.37128,1.91074 0.0206,0.169761 0.0326,0.371094 0.083,0.532708 0.0187,0.06012 0.0963,0.08974 0.11461,0.130751 0.17696,0.396156 -0.0128,1.241733 -0.27121,1.24252 -0.0566,1.84e-4 -0.17112,0.166261 -0.25451,0.369082 -0.72416,1.931268 -2.79089,2.263542 -3.62076,-0.08312 z"
                 style="fill:#2a4148;fill-opacity:1;stroke:#ffffff;stroke-width:0.58499998;stroke-miterlimit:4;stroke-dasharray:none;stroke-opacity:1" />
            </g>
            <g
               id="g10249-3-7-2-8"
               style="display:inline;opacity:1;fill:#386c7a;fill-opacity:1"
               transform="matrix(0.67919815,0,0,0.61153048,27.877612,61.109015)">
              <path
                 style="opacity:1;fill:#386c7a;fill-opacity:1;stroke:#ffffff;stroke-width:0.53864425;stroke-linejoin:round;stroke-miterlimit:4;stroke-dasharray:none;stroke-opacity:1"
                 d="m 225.21034,78.140506 c -0.21071,-0.283064 -0.22149,-0.330544 -0.18774,-0.826413 0.0481,-0.70583 0.42728,-1.214509 0.81595,-1.745975 0.53138,-0.726613 1.41045,-1.565206 1.55304,-1.404467 l 0.19723,0.222308 c 0.2735,0.308318 0.78842,0.567169 1.13067,0.568394 0.32703,8.73e-4 0.93868,-0.308484 1.14206,-0.578186 0.0753,-0.09977 0.20535,-0.18139 0.28912,-0.18139 0.23913,0 1.06863,0.881952 1.51278,1.298593 0.54703,0.513143 0.79492,1.031456 0.83874,1.753606 0.0336,0.553518 0.0287,0.573294 -0.22226,0.900941 l -3.66025,3.86239 z"
                 id="path10187-8-2-2-3-1"
                 inkscape:connector-curvature="0"
                 sodipodi:nodetypes="cssscccsccccc" />
              <g
                 style="fill:#386c7a;fill-opacity:1"
                 id="g10240-6-2-8-2"
                 transform="translate(0.04973075)">
                <path
                   inkscape:export-ydpi="100"
                   inkscape:export-xdpi="100"
                   sodipodi:type="star"
                   style="opacity:1;fill:#386c7a;fill-opacity:1;stroke:#ffffff;stroke-width:0.38669568;stroke-miterlimit:4;stroke-dasharray:none;stroke-opacity:1"
                   id="path2670-80-8-7-2-7-0-7"
                   sodipodi:sides="3"
                   sodipodi:cx="228.71294"
                   sodipodi:cy="75.351006"
                   sodipodi:r1="2.0765183"
                   sodipodi:r2="1.0382591"
                   sodipodi:arg1="1.5707963"
                   sodipodi:arg2="2.6179939"
                   inkscape:flatsided="false"
                   inkscape:rounded="0"
                   inkscape:randomized="0"
                   d="m 228.71294,77.427524 -0.89916,-1.557389 -0.89916,-1.557389 1.79832,0 1.79831,0 -0.89915,1.557389 z"
                   inkscape:transform-center-y="0.65353628"
                   inkscape:transform-center-x="-4.2754102e-006"
                   transform="matrix(0.93044432,0,0,0.90727408,15.908284,6.9699212)" />
                <path
                   style="opacity:1;fill:#386c7a;fill-opacity:1;stroke:#ffffff;stroke-width:0.38669568;stroke-linecap:butt;stroke-linejoin:miter;stroke-miterlimit:4;stroke-dasharray:none;stroke-opacity:1"
                   d="m 228.76764,77.059168 c -0.0303,0.0529 -0.69674,1.31065 -0.69674,1.31065 l 0.0526,3.001401"
                   id="path2674-7-2-3-0-9-8-0"
                   inkscape:connector-curvature="0"
                   sodipodi:nodetypes="ccc"
                   inkscape:export-xdpi="100"
                   inkscape:export-ydpi="100" />
                <path
                   sodipodi:nodetypes="cc"
                   inkscape:export-ydpi="100"
                   inkscape:export-xdpi="100"
                   style="opacity:1;fill:#386c7a;fill-opacity:1;stroke:#ffffff;stroke-width:0.40925291px;stroke-linecap:butt;stroke-linejoin:miter;stroke-opacity:1"
                   d="m 229.07089,75.085805 c 0,0.03016 0.47566,0.821101 0.47566,0.821101"
                   id="path2680-86-5-0-2-2-0-2"
                   inkscape:connector-curvature="0" />
                <path
                   inkscape:export-ydpi="100"
                   inkscape:export-xdpi="100"
                   style="opacity:1;fill:#386c7a;fill-opacity:1;stroke:#ffffff;stroke-width:0.40925291px;stroke-linecap:butt;stroke-linejoin:miter;stroke-opacity:1"
                   d="m 228.40939,75.02279 c 0,0.03016 -0.55388,0.887626 -0.55388,0.887626"
                   id="path2682-9-6-7-2-3-1-4"
                   inkscape:connector-curvature="0"
                   sodipodi:nodetypes="cc" />
              </g>
              <path
                 sodipodi:nodetypes="ccssccscscscc"
                 inkscape:connector-curvature="0"
                 id="path10187-9-2-0-3"
                 d="m 226.96977,73.241227 c -0.0519,-0.157213 -0.1495,-0.285847 -0.21692,-0.285847 -0.0674,0 -0.15973,-0.09776 -0.20517,-0.21725 -0.1025,-0.269614 -0.10908,-1.053201 -0.009,-1.053201 0.0406,0 0.0993,-0.225704 0.1305,-0.501566 0.10767,-0.951712 0.64272,-1.734756 1.39178,-2.036922 0.33762,-0.136194 1.14333,-0.140237 1.4864,-0.0079 0.70013,0.270935 1.26861,1.063072 1.37128,1.91074 0.0206,0.169761 0.0326,0.371094 0.083,0.532708 0.0187,0.06012 0.0963,0.08974 0.11461,0.130751 0.17696,0.396156 -0.0128,1.241733 -0.27121,1.24252 -0.0566,1.84e-4 -0.17112,0.166261 -0.25451,0.369082 -0.72416,1.931268 -2.79089,2.263542 -3.62076,-0.08312 z"
                 style="fill:#386c7a;fill-opacity:1;stroke:#ffffff;stroke-width:0.58499998;stroke-miterlimit:4;stroke-dasharray:none;stroke-opacity:1" />
            </g>
            <g
               id="g10249-3-6-6-5"
               style="display:inline;opacity:1;fill:#386c7a;fill-opacity:1"
               transform="matrix(0.67919815,0,0,0.61153048,31.143891,61.119452)">
              <path
                 style="opacity:1;fill:#386c7a;fill-opacity:1;stroke:#ffffff;stroke-width:0.53864425;stroke-linejoin:round;stroke-miterlimit:4;stroke-dasharray:none;stroke-opacity:1"
                 d="m 225.21034,78.140506 c -0.21071,-0.283064 -0.22149,-0.330544 -0.18774,-0.826413 0.0481,-0.70583 0.42728,-1.214509 0.81595,-1.745975 0.53138,-0.726613 1.41045,-1.565206 1.55304,-1.404467 l 0.19723,0.222308 c 0.2735,0.308318 0.78842,0.567169 1.13067,0.568394 0.32703,8.73e-4 0.93868,-0.308484 1.14206,-0.578186 0.0753,-0.09977 0.20535,-0.18139 0.28912,-0.18139 0.23913,0 1.06863,0.881952 1.51278,1.298593 0.54703,0.513143 0.79492,1.031456 0.83874,1.753606 0.0336,0.553518 0.0287,0.573294 -0.22226,0.900941 l -3.68889,3.887837 z"
                 id="path10187-8-2-1-1-0"
                 inkscape:connector-curvature="0"
                 sodipodi:nodetypes="cssscccsccccc" />
              <g
                 style="fill:#386c7a;fill-opacity:1"
                 id="g10240-6-9-3-0"
                 transform="translate(0.04973075)">
                <path
                   inkscape:export-ydpi="100"
                   inkscape:export-xdpi="100"
                   sodipodi:type="star"
                   style="opacity:1;fill:#386c7a;fill-opacity:1;stroke:#ffffff;stroke-width:0.38669568;stroke-miterlimit:4;stroke-dasharray:none;stroke-opacity:1"
                   id="path2670-80-8-7-2-79-5-8"
                   sodipodi:sides="3"
                   sodipodi:cx="228.71294"
                   sodipodi:cy="75.351006"
                   sodipodi:r1="2.0765183"
                   sodipodi:r2="1.0382591"
                   sodipodi:arg1="1.5707963"
                   sodipodi:arg2="2.6179939"
                   inkscape:flatsided="false"
                   inkscape:rounded="0"
                   inkscape:randomized="0"
                   d="m 228.71294,77.427524 -0.89916,-1.557389 -0.89916,-1.557389 1.79832,0 1.79831,0 -0.89915,1.557389 z"
                   inkscape:transform-center-y="0.65353628"
                   inkscape:transform-center-x="-4.2754102e-006"
                   transform="matrix(0.93044432,0,0,0.90727408,15.908284,6.9699212)" />
                <path
                   style="opacity:1;fill:#386c7a;fill-opacity:1;stroke:#ffffff;stroke-width:0.38669568;stroke-linecap:butt;stroke-linejoin:miter;stroke-miterlimit:4;stroke-dasharray:none;stroke-opacity:1"
                   d="m 228.76764,77.059168 c -0.0303,0.0529 -0.69674,1.31065 -0.69674,1.31065 l 0.0526,3.001401"
                   id="path2674-7-2-3-0-94-3-6"
                   inkscape:connector-curvature="0"
                   sodipodi:nodetypes="ccc"
                   inkscape:export-xdpi="100"
                   inkscape:export-ydpi="100" />
                <path
                   sodipodi:nodetypes="cc"
                   inkscape:export-ydpi="100"
                   inkscape:export-xdpi="100"
                   style="opacity:1;fill:#386c7a;fill-opacity:1;stroke:#ffffff;stroke-width:0.40925291px;stroke-linecap:butt;stroke-linejoin:miter;stroke-opacity:1"
                   d="m 229.07089,75.085805 c 0,0.03016 0.47566,0.821101 0.47566,0.821101"
                   id="path2680-86-5-0-2-9-0-0"
                   inkscape:connector-curvature="0" />
                <path
                   inkscape:export-ydpi="100"
                   inkscape:export-xdpi="100"
                   style="opacity:1;fill:#386c7a;fill-opacity:1;stroke:#ffffff;stroke-width:0.40925291px;stroke-linecap:butt;stroke-linejoin:miter;stroke-opacity:1"
                   d="m 228.40939,75.02279 c 0,0.03016 -0.55388,0.887626 -0.55388,0.887626"
                   id="path2682-9-6-7-2-7-0-8"
                   inkscape:connector-curvature="0"
                   sodipodi:nodetypes="cc" />
              </g>
              <path
                 sodipodi:nodetypes="ccssccscscscc"
                 inkscape:connector-curvature="0"
                 id="path10187-9-7-3-3"
                 d="m 226.96977,73.241227 c -0.0519,-0.157213 -0.1495,-0.285847 -0.21692,-0.285847 -0.0674,0 -0.15973,-0.09776 -0.20517,-0.21725 -0.1025,-0.269614 -0.10908,-1.053201 -0.009,-1.053201 0.0406,0 0.0993,-0.225704 0.1305,-0.501566 0.10767,-0.951712 0.64272,-1.734756 1.39178,-2.036922 0.33762,-0.136194 1.14333,-0.140237 1.4864,-0.0079 0.70013,0.270935 1.26861,1.063072 1.37128,1.91074 0.0206,0.169761 0.0326,0.371094 0.083,0.532708 0.0187,0.06012 0.0963,0.08974 0.11461,0.130751 0.17696,0.396156 -0.0128,1.241733 -0.27121,1.24252 -0.0566,1.84e-4 -0.17112,0.166261 -0.25451,0.369082 -0.72416,1.931268 -2.79089,2.263542 -3.62076,-0.08312 z"
                 style="fill:#386c7a;fill-opacity:1;stroke:#ffffff;stroke-width:0.58499998;stroke-miterlimit:4;stroke-dasharray:none;stroke-opacity:1" />
            </g>
            <g
               id="g10249-3-8-3-2"
               style="display:inline;opacity:1"
               transform="matrix(0.67919815,0,0,0.61153048,29.447271,62.737979)">
              <path
                 style="opacity:1;fill:#49a0b7;fill-opacity:1;stroke:#ffffff;stroke-width:0.53864425;stroke-linejoin:round;stroke-miterlimit:4;stroke-dasharray:none;stroke-opacity:1"
                 d="m 225.21034,78.140506 c -0.21071,-0.283064 -0.22149,-0.330544 -0.18774,-0.826413 0.0481,-0.70583 0.42728,-1.214509 0.81595,-1.745975 0.53138,-0.726613 1.41045,-1.565206 1.55304,-1.404467 l 0.19723,0.222308 c 0.2735,0.308318 0.78842,0.567169 1.13067,0.568394 0.32703,8.73e-4 0.93868,-0.308484 1.14206,-0.578186 0.0753,-0.09977 0.20535,-0.18139 0.28912,-0.18139 0.23913,0 1.06863,0.881952 1.51278,1.298593 0.54703,0.513143 0.79492,1.031456 0.83874,1.753606 0.0336,0.553518 0.0287,0.573294 -0.22226,0.900941 l -3.52851,3.887837 -2.42586,-2.668483 z"
                 id="path10187-8-2-8-8-4"
                 inkscape:connector-curvature="0"
                 sodipodi:nodetypes="cssscccscccccc" />
              <g
                 id="g10240-6-4-3-1"
                 transform="translate(0.04973075)">
                <path
                   inkscape:export-ydpi="100"
                   inkscape:export-xdpi="100"
                   sodipodi:type="star"
                   style="opacity:1;fill:#49a0b7;fill-opacity:1;stroke:#ffffff;stroke-width:0.38669568;stroke-miterlimit:4;stroke-dasharray:none;stroke-opacity:1"
                   id="path2670-80-8-7-2-6-2-2"
                   sodipodi:sides="3"
                   sodipodi:cx="228.71294"
                   sodipodi:cy="75.351006"
                   sodipodi:r1="2.0765183"
                   sodipodi:r2="1.0382591"
                   sodipodi:arg1="1.5707963"
                   sodipodi:arg2="2.6179939"
                   inkscape:flatsided="false"
                   inkscape:rounded="0"
                   inkscape:randomized="0"
                   d="m 228.71294,77.427524 -0.89916,-1.557389 -0.89916,-1.557389 1.79832,0 1.79831,0 -0.89915,1.557389 z"
                   inkscape:transform-center-y="0.65353628"
                   inkscape:transform-center-x="-4.2754102e-006"
                   transform="matrix(0.93044432,0,0,0.90727408,15.908284,6.9699212)" />
                <path
                   sodipodi:nodetypes="cc"
                   inkscape:export-ydpi="100"
                   inkscape:export-xdpi="100"
                   style="opacity:1;fill:#49a0b7;fill-opacity:1;stroke:#ffffff;stroke-width:0.40925291px;stroke-linecap:butt;stroke-linejoin:miter;stroke-opacity:1"
                   d="m 229.07089,75.085805 c 0,0.03016 0.47566,0.821101 0.47566,0.821101"
                   id="path2680-86-5-0-2-0-7-7"
                   inkscape:connector-curvature="0" />
                <path
                   inkscape:export-ydpi="100"
                   inkscape:export-xdpi="100"
                   style="opacity:1;fill:#49a0b7;fill-opacity:1;stroke:#ffffff;stroke-width:0.40925291px;stroke-linecap:butt;stroke-linejoin:miter;stroke-opacity:1"
                   d="m 228.40939,75.02279 c 0,0.03016 -0.55388,0.887626 -0.55388,0.887626"
                   id="path2682-9-6-7-2-6-6-9"
                   inkscape:connector-curvature="0"
                   sodipodi:nodetypes="cc" />
              </g>
              <path
                 sodipodi:nodetypes="ccssccscscscc"
                 inkscape:connector-curvature="0"
                 id="path10187-9-0-9-1"
                 d="m 226.96977,73.241227 c -0.0519,-0.157213 -0.1495,-0.285847 -0.21692,-0.285847 -0.0674,0 -0.15973,-0.09776 -0.20517,-0.21725 -0.1025,-0.269614 -0.10908,-1.053201 -0.009,-1.053201 0.0406,0 0.0993,-0.225704 0.1305,-0.501566 0.10767,-0.951712 0.64272,-1.734756 1.39178,-2.036922 0.33762,-0.136194 1.14333,-0.140237 1.4864,-0.0079 0.70013,0.270935 1.26861,1.063072 1.37128,1.91074 0.0206,0.169761 0.0326,0.371094 0.083,0.532708 0.0187,0.06012 0.0963,0.08974 0.11461,0.130751 0.17696,0.396156 -0.0128,1.241733 -0.27121,1.24252 -0.0566,1.84e-4 -0.17112,0.166261 -0.25451,0.369082 -0.72416,1.931268 -2.79089,2.263542 -3.62076,-0.08312 z"
                 style="fill:#49a0b7;fill-opacity:1;stroke:#ffffff;stroke-width:0.58499998;stroke-miterlimit:4;stroke-dasharray:none;stroke-opacity:1" />
            </g>
            <path
               sodipodi:nodetypes="cccc"
               style="display:inline;opacity:1;fill:#ffffff;fill-opacity:1;stroke:none;stroke-width:0.19906539px;stroke-linecap:butt;stroke-linejoin:miter;stroke-opacity:1"
               d="m 181.87836,110.02833 c 0.0427,-0.007 6.00679,0 6.00679,0 l -3.17432,2.80338 z"
               id="path822"
               inkscape:connector-curvature="0" />
          </g>
        </g>
      </g>
    </g>
  </g>
</svg>
